<svg width="28" height="28" viewBox="0 0 28 28" fill="none" xmlns="http://www.w3.org/2000/svg">
<g clip-path="url(#clip0_2_4816)">
<path d="M18.9583 25.6667C17.9212 25.6667 17.2077 25.3301 16.5783 25.0332C15.9717 24.7473 15.4472 24.5 14.5833 24.5C13.7194 24.5 13.195 24.7473 12.5883 25.0332C11.9589 25.3301 11.2455 25.6667 10.2083 25.6667C7.68483 25.6667 3.5 19.8747 3.5 13.7083C3.5 9.61916 6.31867 6.41667 9.91667 6.41667C11.0991 6.41667 11.8178 6.75558 12.4518 7.05425C13.0538 7.33833 13.5742 7.58333 14.5833 7.58333C15.5925 7.58333 16.1128 7.33833 16.7148 7.05425C17.3489 6.75558 18.0676 6.41667 19.25 6.41667C20.804 6.41667 22.1859 6.9895 23.3578 8.12058C23.555 8.31075 23.6518 8.58316 23.6186 8.85558C23.5853 9.128 23.4267 9.36891 23.1898 9.50658C21.8388 10.2923 21 11.9577 21 13.8542C21 15.9897 22.169 17.8261 23.9085 18.4222C24.1366 18.5004 24.3221 18.669 24.4213 18.8883C24.521 19.1071 24.5262 19.3579 24.4347 19.5813C23.0189 23.0504 20.664 25.6667 18.9583 25.6667ZM14.875 5.83333C14.6662 5.83333 14.462 5.75867 14.301 5.61867C14.0893 5.43433 13.9778 5.159 14.0035 4.87842C14.0105 4.80667 14.1803 3.10217 15.5161 1.73892C16.7726 0.455583 17.9958 0.0740836 18.1306 0.0344169C18.4158 -0.0484164 18.7238 0.0192502 18.9478 0.214084C19.1724 0.408333 19.2827 0.7035 19.2412 0.998083C19.2214 1.13867 19.0143 2.41908 17.9392 3.85583C16.7883 5.3935 15.1445 5.79367 15.0751 5.81C15.0086 5.82575 14.9415 5.83333 14.875 5.83333Z" fill="#171201"/>
</g>
<defs>
<clipPath id="clip0_2_4816">
<rect width="28" height="28" fill="white"/>
</clipPath>
</defs>
</svg>
