<svg width="25" height="22" viewBox="0 0 25 22" fill="none" xmlns="http://www.w3.org/2000/svg">
<path fill-rule="evenodd" clip-rule="evenodd" d="M23.4375 9.42849H4.89844L10.575 2.57702C11.1281 1.91073 11.0375 0.919149 10.375 0.364431C9.71094 -0.191858 8.72656 -0.100715 8.175 0.565575L0.3625 9.99421C0.301562 10.0681 0.270312 10.1545 0.225 10.2362C0.1875 10.3022 0.142187 10.3588 0.114062 10.4311C0.04375 10.6118 0.0015625 10.8019 0.0015625 10.9936C0.0015625 10.9952 0 10.9984 0 10.9999C0 11.0015 0.0015625 11.0046 0.0015625 11.0062C0.0015625 11.1979 0.04375 11.3881 0.114062 11.5688C0.142187 11.6411 0.1875 11.6976 0.225 11.7636C0.270312 11.8454 0.301562 11.9318 0.3625 12.0056L8.175 21.4343C8.48438 21.8067 8.92813 22 9.375 22C9.72812 22 10.0828 21.8806 10.375 21.6354C11.0375 21.0807 11.1281 20.0891 10.575 19.4228L4.89844 12.5714H23.4375C24.3 12.5714 25 11.8674 25 10.9999C25 10.1325 24.3 9.42849 23.4375 9.42849Z" fill="black"/>
</svg>
