<svg width="16" height="16" viewBox="0 0 16 16" fill="none" xmlns="http://www.w3.org/2000/svg">
<path d="M3.20833 0.5C1.72003 0.5 0.5 1.72003 0.5 3.20833V12.7917C0.5 14.28 1.72003 15.5 3.20833 15.5H12.7917C14.28 15.5 15.5 14.28 15.5 12.7917V3.20833C15.5 1.72003 14.28 0.5 12.7917 0.5H3.20833ZM3.20833 1.75H12.7917C13.6042 1.75 14.25 2.39581 14.25 3.20833V3.83333H1.75V3.20833C1.75 2.39581 2.39581 1.75 3.20833 1.75ZM1.75 5.08333H14.25V12.7917C14.25 13.6042 13.6042 14.25 12.7917 14.25H3.20833C2.39581 14.25 1.75 13.6042 1.75 12.7917V5.08333ZM9.45833 8C8.66044 8 8 8.66044 8 9.45833V11.125C8 11.9229 8.66044 12.5833 9.45833 12.5833H11.125C11.9229 12.5833 12.5833 11.9229 12.5833 11.125V9.45833C12.5833 8.66044 11.9229 8 11.125 8H9.45833ZM9.45833 9.25H11.125C11.2479 9.25 11.3333 9.3354 11.3333 9.45833V11.125C11.3333 11.2479 11.2479 11.3333 11.125 11.3333H9.45833C9.3354 11.3333 9.25 11.2479 9.25 11.125V9.45833C9.25 9.3354 9.3354 9.25 9.45833 9.25Z" fill="#171201"/>
</svg>
