<svg width="16" height="17" viewBox="0 0 16 17" fill="none" xmlns="http://www.w3.org/2000/svg">
<path d="M15.1284 11.4743C15.659 11.8317 15.9072 12.4789 15.746 13.0849C15.2911 14.7961 14.0847 15.5326 13.4236 15.8569C12.8757 16.1251 12.0519 16.1014 11.9559 16.0921C10.4154 15.9421 6.48687 15.1797 3.29975 11.3551C0.444122 7.92868 0.0473721 5.08093 0.0649971 3.68856C0.0751221 2.91231 0.370247 2.19231 0.896372 1.66093C1.3955 1.15656 2.05325 0.718932 2.51675 0.440682C3.18612 0.0383075 4.0385 0.213432 4.49862 0.847182L6.73025 3.91543C7.16675 4.51656 7.10262 5.33331 6.57837 5.85831L5.92025 6.51606C5.77775 6.65856 5.77325 6.88768 5.90975 7.03581L8.95175 10.3306C9.08712 10.4772 9.314 10.4922 9.46737 10.3643L10.4446 9.54981C10.973 9.10881 11.7301 9.08331 12.2855 9.48793C12.7767 9.84568 13.8005 10.5796 15.1284 11.4743ZM12.1017 14.5992C12.8757 14.6251 13.8826 13.8503 14.2017 12.9979C14.2644 12.8307 14.207 12.6406 14.0581 12.5423C12.9999 11.8414 12.1531 11.2426 11.636 10.8702C11.4969 10.7701 11.3101 10.7783 11.1785 10.8882L10.1536 11.7447C9.53937 12.2569 8.63337 12.1977 8.09075 11.6097L4.5635 7.78843C4.01712 7.19668 4.03587 6.27906 4.60512 5.70981L5.29062 5.02468C5.42112 4.89418 5.43725 4.68831 5.32887 4.53906L3.491 2.01231C3.374 1.85143 3.15312 1.80793 2.98625 1.91593C2.64725 2.13493 1.62575 3.00006 1.565 3.70768C1.508 4.36918 1.664 5.43081 2.20775 6.77106C2.63487 7.82406 3.33125 9.05031 4.45175 10.3951C5.45937 11.6041 6.5465 12.4681 7.5905 13.0857C9.48012 14.2039 11.2239 14.5696 12.1017 14.5992Z" fill="#171201"/>
</svg>
