<svg width="18" height="15" viewBox="0 0 18 15" fill="none" xmlns="http://www.w3.org/2000/svg">
<path d="M5.21875 0.46875C3.70247 0.46875 2.46875 1.70247 2.46875 3.21875V5.48334C1.46149 5.89157 0.75 6.87762 0.75 8.03125V12.1562C0.75 12.7258 1.21166 13.1875 1.78125 13.1875V14.2188C1.78125 14.5983 2.08925 14.9062 2.46875 14.9062C2.84825 14.9062 3.15625 14.5983 3.15625 14.2188V13.1875H14.8438V14.2188C14.8438 14.5983 15.1517 14.9062 15.5312 14.9062C15.9108 14.9062 16.2188 14.5983 16.2188 14.2188V13.1875C16.7883 13.1875 17.25 12.7258 17.25 12.1562V8.03125C17.25 6.87762 16.5385 5.89157 15.5312 5.48334V3.21875C15.5312 1.70247 14.2975 0.46875 12.7812 0.46875H5.21875ZM5.21875 1.84375H12.7812C13.5396 1.84375 14.1562 2.46044 14.1562 3.21875V5.28125H12.7812C12.7812 4.90141 12.4736 4.59375 12.0938 4.59375H10.375C9.99516 4.59375 9.6875 4.90141 9.6875 5.28125H8.3125C8.3125 4.90141 8.00484 4.59375 7.625 4.59375H5.90625C5.52641 4.59375 5.21875 4.90141 5.21875 5.28125H3.84375V3.21875C3.84375 2.46044 4.46044 1.84375 5.21875 1.84375ZM3.5 6.65625H14.5C15.2593 6.65625 15.875 7.27191 15.875 8.03125V11.4688C15.875 11.6585 15.721 11.8125 15.5312 11.8125H2.46875C2.279 11.8125 2.125 11.6585 2.125 11.4688V8.03125C2.125 7.27191 2.74066 6.65625 3.5 6.65625Z" fill="#7F7E79"/>
</svg>
