<svg width="16" height="16" viewBox="0 0 16 16" fill="none" xmlns="http://www.w3.org/2000/svg">
<path d="M11.0851 0.5C15.1794 0.5 15.5 0.82025 15.5 4.91488V11.0848C15.5 15.1794 15.1794 15.5 11.0851 15.5H4.91488C0.820625 15.5 0.5 15.1794 0.5 11.0851V4.91488C0.5 0.82025 0.820625 0.5 4.91488 0.5H11.0851ZM12.0046 4.80725C12.23 4.45963 12.1306 3.995 11.783 3.77C11.4343 3.545 10.9704 3.644 10.7454 3.99163L7.1045 9.61138L5.18825 7.433C4.91488 7.12213 4.4405 7.09138 4.12963 7.3655C3.81875 7.63888 3.78837 8.11288 4.06175 8.42413L6.63238 11.3458C6.77563 11.5081 6.98112 11.6004 7.19562 11.6004C7.214 11.6004 7.23237 11.5996 7.25037 11.5985C7.48475 11.5813 7.697 11.4553 7.82488 11.2584L12.0046 4.80725Z" fill="#171201"/>
</svg>
