<svg width="20" height="20" viewBox="0 0 20 20" fill="none" xmlns="http://www.w3.org/2000/svg">
<path d="M9.99935 1.6665C5.40438 1.6665 1.66602 5.40487 1.66602 9.99984C1.66602 14.5948 5.40438 18.3332 9.99935 18.3332C14.5943 18.3332 18.3327 14.5948 18.3327 9.99984C18.3327 5.40487 14.5943 1.6665 9.99935 1.6665ZM9.99935 2.9165C13.9188 2.9165 17.0827 6.08042 17.0827 9.99984C17.0827 13.9193 13.9188 17.0832 9.99935 17.0832C6.07993 17.0832 2.91602 13.9193 2.91602 9.99984C2.91602 6.08042 6.07993 2.9165 9.99935 2.9165ZM12.702 6.65755C12.5369 6.66145 12.3801 6.73049 12.2658 6.84961L9.99935 9.11605L7.73291 6.84961C7.67465 6.78962 7.60495 6.74192 7.52793 6.70935C7.45091 6.67678 7.36813 6.66 7.28451 6.65999C7.16012 6.66002 7.03857 6.69716 6.93542 6.76666C6.83226 6.83616 6.75218 6.93485 6.70543 7.05012C6.65868 7.16538 6.64738 7.29197 6.67297 7.41369C6.69857 7.53541 6.7599 7.64673 6.84912 7.7334L9.11556 9.99984L6.84912 12.2663C6.78914 12.3239 6.74125 12.3928 6.70826 12.4692C6.67527 12.5455 6.65785 12.6277 6.657 12.7108C6.65615 12.794 6.67191 12.8764 6.70334 12.9534C6.73477 13.0304 6.78125 13.1003 6.84004 13.1591C6.89884 13.2179 6.96878 13.2644 7.04577 13.2958C7.12275 13.3273 7.20524 13.343 7.28838 13.3422C7.37153 13.3413 7.45368 13.3239 7.53001 13.2909C7.60634 13.2579 7.67532 13.21 7.73291 13.1501L9.99935 10.8836L12.2658 13.1501C12.3234 13.21 12.3924 13.2579 12.4687 13.2909C12.545 13.3239 12.6272 13.3413 12.7103 13.3422C12.7935 13.343 12.8759 13.3273 12.9529 13.2958C13.0299 13.2644 13.0999 13.2179 13.1587 13.1591C13.2175 13.1003 13.2639 13.0304 13.2954 12.9534C13.3268 12.8764 13.3425 12.794 13.3417 12.7108C13.3409 12.6277 13.3234 12.5455 13.2904 12.4692C13.2574 12.3928 13.2096 12.3239 13.1496 12.2663L10.8831 9.99984L13.1496 7.7334C13.2405 7.64617 13.3029 7.53351 13.3286 7.41019C13.3544 7.28687 13.3422 7.15865 13.2939 7.04234C13.2455 6.92603 13.1631 6.82705 13.0574 6.75839C12.9518 6.68973 12.8279 6.65458 12.702 6.65755Z" fill="#7F7E79"/>
</svg>
