<svg width="20" height="20" viewBox="0 0 20 20" fill="none" xmlns="http://www.w3.org/2000/svg">
<path d="M10.0007 0.833496C4.94618 0.833496 0.833984 4.9457 0.833984 10.0002C0.833984 15.0546 4.94618 19.1668 10.0007 19.1668C15.0551 19.1668 19.1673 15.0546 19.1673 10.0002C19.1673 4.9457 15.0551 0.833496 10.0007 0.833496ZM10.0007 2.2085C14.312 2.2085 17.7923 5.6888 17.7923 10.0002C17.7923 14.3115 14.312 17.7918 10.0007 17.7918C5.68929 17.7918 2.20898 14.3115 2.20898 10.0002C2.20898 5.6888 5.68929 2.2085 10.0007 2.2085ZM13.4247 7.2439C13.2462 7.2491 13.0767 7.32358 12.9521 7.45158L8.85482 11.5488L7.04924 9.74325C6.98589 9.67727 6.91001 9.62459 6.82604 9.5883C6.74208 9.55201 6.65172 9.53284 6.56026 9.53191C6.46879 9.53098 6.37806 9.54831 6.29338 9.58289C6.20869 9.61746 6.13176 9.66858 6.06708 9.73326C6.0024 9.79794 5.95128 9.87487 5.91671 9.95956C5.88213 10.0442 5.8648 10.135 5.86573 10.2264C5.86666 10.3179 5.88583 10.4083 5.92212 10.4922C5.95841 10.5762 6.01109 10.6521 6.07707 10.7154L8.36873 13.0071C8.49767 13.136 8.67251 13.2084 8.85482 13.2084C9.03712 13.2084 9.21197 13.136 9.3409 13.0071L13.9242 8.42375C14.0234 8.32715 14.0911 8.20286 14.1185 8.06715C14.1459 7.93143 14.1317 7.79061 14.0777 7.66312C14.0237 7.53563 13.9325 7.4274 13.816 7.3526C13.6995 7.2778 13.5631 7.23991 13.4247 7.2439Z" fill="#7F7E79"/>
</svg>
