<svg width="80" height="80" viewBox="0 0 80 80" fill="none" xmlns="http://www.w3.org/2000/svg">
<g clip-path="url(#clip0_550_1410)">
<path d="M30.0163 57.7409L22.2598 49.9844L32.244 40L22.2598 30.0158L30.0163 22.2592L40.0005 32.2434L49.9848 22.2592L57.7415 30.0158L47.7573 40L57.7415 49.9844L49.9848 57.7409L40.0005 47.7567L30.0163 57.7409Z" fill="#E63939"/>
<path d="M79.5423 22.1489L57.8511 0.457656C57.558 0.164673 57.1606 5.70966e-05 56.7463 0L23.2537 0C22.8394 5.70966e-05 22.442 0.164673 22.1489 0.457656L0.457656 22.1489C0.164673 22.442 5.70966e-05 22.8394 0 23.2537L0 56.7463C0 57.1606 0.164687 57.558 0.457656 57.8511L22.1489 79.5423C22.442 79.8353 22.8394 79.9999 23.2537 80H56.7463C57.1606 80 57.558 79.8353 57.8511 79.5423L79.5423 57.8511C79.8353 57.558 79.9999 57.1606 80 56.7463V23.2537C80 22.8394 79.8353 22.442 79.5423 22.1489ZM76.875 56.0989L56.0989 76.875H23.9011L3.125 56.0989V23.9011L23.9011 3.125H56.0989L76.875 23.9011V56.0989Z" fill="#171201"/>
<path d="M54.1468 6.27548H25.853C25.4387 6.27554 25.0413 6.44016 24.7482 6.73314L6.73305 24.7483C6.44006 25.0413 6.27545 25.4388 6.27539 25.8531V54.1469C6.27539 54.5613 6.44008 54.9586 6.73305 55.2517L24.7482 73.2669C25.0413 73.5599 25.4387 73.7245 25.853 73.7245H54.1468C54.5612 73.7245 54.9585 73.5599 55.2516 73.2669L73.2668 55.2517C73.5598 54.9587 73.7244 54.5613 73.7245 54.1469V25.853C73.7245 25.4386 73.5598 25.0413 73.2668 24.7481L55.2516 6.73314C54.9586 6.44016 54.5612 6.27554 54.1468 6.27548ZM70.5995 53.4995L53.4996 70.5995H26.5002L9.40039 53.4995V26.5005L26.5002 9.40048H53.4995L70.5993 26.5002V53.4995H70.5995Z" fill="#171201"/>
</g>
<defs>
<clipPath id="clip0_550_1410">
<rect width="80" height="80" fill="white"/>
</clipPath>
</defs>
</svg>
