<svg width="24" height="24" viewBox="0 0 24 24" fill="none" xmlns="http://www.w3.org/2000/svg">
<path d="M9.69641 13.248H7.32041C6.93641 13.248 6.81641 13.104 6.81641 12.744V9.84C6.81641 9.456 6.96041 9.336 7.32041 9.336H9.69641V7.224C9.69641 6.264 9.86441 5.352 10.3444 4.512C10.8484 3.648 11.5684 3.072 12.4804 2.736C13.0804 2.52 13.6804 2.424 14.3284 2.424H16.6804C17.0164 2.424 17.1604 2.568 17.1604 2.904V5.64C17.1604 5.976 17.0164 6.12 16.6804 6.12C16.0324 6.12 15.3844 6.12 14.7364 6.144C14.0884 6.144 13.7524 6.456 13.7524 7.128C13.7284 7.848 13.7524 8.544 13.7524 9.288H16.5364C16.9204 9.288 17.0644 9.432 17.0644 9.816V12.72C17.0644 13.104 16.9444 13.224 16.5364 13.224H13.7524V21.048C13.7524 21.456 13.6324 21.6 13.2004 21.6H10.2004C9.84041 21.6 9.69641 21.456 9.69641 21.096V13.248Z" fill="#275196"/>
</svg>
