<svg width="20" height="15" viewBox="0 0 20 15" fill="none" xmlns="http://www.w3.org/2000/svg">
<path d="M13.9375 0.25C12.1799 0.25 10.75 1.76425 10.75 3.625C10.75 5.48575 12.1799 7 13.9375 7C15.6952 7 17.125 5.48575 17.125 3.625C17.125 1.76425 15.6952 0.25 13.9375 0.25ZM5.68754 0.625C3.95204 0.625 2.50447 1.93902 2.19022 3.67114C1.91385 4.84977 1.37491 5.71171 0.802283 6.52246C0.504908 6.94359 0.771533 7.53679 1.27103 7.66504C3.02491 8.11504 7.15079 8.42441 10.1092 7.66504C10.6087 7.53679 10.8716 6.94584 10.5772 6.52246C10.0634 5.78334 9.3818 4.69392 9.18192 3.64917C8.8598 1.92754 7.41591 0.625 5.68754 0.625ZM13.9375 1.75C14.8679 1.75 15.625 2.59113 15.625 3.625C15.625 4.65887 14.8679 5.5 13.9375 5.5C13.0072 5.5 12.25 4.65887 12.25 3.625C12.25 2.59113 13.0072 1.75 13.9375 1.75ZM3.90409 3.25H7.47098C7.64723 3.5815 7.75004 3.96513 7.75004 4.375C7.75004 5.61588 6.82454 6.625 5.68754 6.625C4.55054 6.625 3.62504 5.61588 3.62504 4.375C3.62504 3.96513 3.72747 3.5815 3.90409 3.25ZM13.9375 7.802C12.0669 7.802 10.3575 8.50138 9.2244 9.66089C8.2937 9.19095 7.20847 8.92627 6.0618 8.92627C3.56018 8.92627 1.34264 10.1737 0.412635 12.105C-0.143865 13.2611 0.775922 14.5 1.96317 14.5H10.1619C10.8737 14.5 11.5358 14.0279 11.7813 13.375H18.0369C19.2242 13.375 20.1436 12.1361 19.5867 10.98C18.6567 9.04873 16.4395 7.80125 13.9375 7.802ZM13.9375 9.30127C15.8373 9.30127 17.5649 10.2376 18.2361 11.6311C18.2957 11.7579 18.1547 11.875 18.0369 11.875H11.5887C11.3109 11.3708 10.9456 10.9162 10.5069 10.5251C11.3643 9.76825 12.6046 9.30127 13.9375 9.30127ZM6.06254 10.4263C7.96191 10.4263 9.68951 11.3626 10.3604 12.7561C10.42 12.8829 10.2782 13 10.1612 13H1.96317C1.84542 13 1.7047 12.8825 1.76395 12.7554C2.4352 11.3622 4.16316 10.4263 6.06254 10.4263Z" fill="#171201"/>
</svg>
