<svg width="24" height="24" viewBox="0 0 24 24" fill="none" xmlns="http://www.w3.org/2000/svg">
<g clip-path="url(#clip0_2_4821)">
<path d="M0 12C0 5.3832 5.3832 0 12 0C14.3363 0 16.5633 0.65713 18.4984 1.9093C18.962 2.20935 19.0416 2.84117 18.7047 3.2788L17.1362 5.31642C16.7993 5.75404 16.1742 5.82879 15.6957 5.55298C14.5774 4.90829 13.317 4.57143 12 4.57143C7.90389 4.57143 4.57143 7.90389 4.57143 12C4.57143 16.0961 7.90389 19.4286 12 19.4286C15.2991 19.4286 18.1026 17.2671 19.0688 14.2857H13C12.4477 14.2857 12 13.838 12 13.2857V10.7143C12 10.162 12.4477 9.71429 13 9.71429H23C23.5523 9.71429 24 10.162 24 10.7143V12C24 18.6168 18.6168 24 12 24C5.3832 24 0 18.6168 0 12Z" fill="#E72234"/>
</g>
<defs>
<clipPath id="clip0_2_4821">
<rect width="24" height="24" fill="white"/>
</clipPath>
</defs>
</svg>
