<svg width="20" height="19" viewBox="0 0 20 19" fill="none" xmlns="http://www.w3.org/2000/svg">
<path d="M15.2499 18.625C15.1126 18.625 14.9754 18.5875 14.8535 18.5118L9.99989 15.493L5.14626 18.5118C4.89126 18.6704 4.56651 18.6614 4.32089 18.49C4.07489 18.3183 3.95451 18.0168 4.01601 17.7231L5.20101 11.9991L0.882889 8.24312C0.657139 8.047 0.569763 7.73537 0.660138 7.45075C0.750138 7.16575 1.00139 6.96175 1.29876 6.93137L7.02914 6.34562L9.31176 1.07687C9.43026 0.80275 9.70101 0.625 9.99989 0.625C10.2988 0.625 10.5695 0.80275 10.688 1.07687L12.9706 6.34562L18.701 6.93137C18.9984 6.96175 19.2496 7.16575 19.3396 7.45075C19.43 7.73575 19.3426 8.047 19.1169 8.24312L14.7991 11.9991L15.9841 17.7231C16.0453 18.0168 15.9253 18.3183 15.6793 18.49C15.5506 18.5796 15.4003 18.625 15.2499 18.625Z" fill="url(#paint0_linear_1_2061)"/>
<defs>
<linearGradient id="paint0_linear_1_2061" x1="0.4" y1="7.6" x2="20.2" y2="7.6" gradientUnits="userSpaceOnUse">
<stop stop-color="#FDC20F"/>
<stop offset="0.515525" stop-color="#FDC20F"/>
<stop offset="0.515625" stop-color="#F2F2F0"/>
<stop offset="1" stop-color="#F2F2F0"/>
</linearGradient>
</defs>
</svg>
