<svg width="36" height="36" viewBox="0 0 36 36" fill="none" xmlns="http://www.w3.org/2000/svg">
<g clip-path="url(#clip0_624_526)">
<path fill-rule="evenodd" clip-rule="evenodd" d="M18.9891 11.5292C15.4195 15.0988 15.4196 20.8863 18.9893 24.4559C22.559 28.0255 28.3465 28.0254 31.9161 24.4557C35.4856 20.886 35.4855 15.0985 31.9158 11.5289C28.3462 7.95937 22.5587 7.95947 18.9891 11.5292ZM17.995 25.4503C13.8761 21.3316 13.876 14.6537 17.9947 10.5348C22.1134 6.41594 28.7913 6.41582 32.9102 10.5345C37.0291 14.6533 37.0292 21.3312 32.9105 25.45C28.7917 29.5689 22.1138 29.569 17.995 25.4503Z" fill="#171201"/>
<path fill-rule="evenodd" clip-rule="evenodd" d="M11.9531 1.40624C6.12819 1.40624 1.40624 6.12826 1.40624 11.9531C1.40624 17.778 6.12819 22.4999 11.9531 22.4999C13.3797 22.4999 14.7915 22.2105 16.1031 21.6492C16.4601 21.4964 16.8733 21.6619 17.0261 22.0189C17.1789 22.3759 17.0134 22.7892 16.6564 22.942C15.17 23.5782 13.5699 23.9062 11.9531 23.9062C5.35154 23.9062 0 18.5546 0 11.9531C0 5.35162 5.35154 0 11.9531 0C17.0832 0 21.6413 3.27357 23.28 8.13497C23.404 8.50295 23.2063 8.90181 22.8383 9.02585C22.4703 9.14989 22.0714 8.95214 21.9474 8.58415C20.5015 4.29469 16.4796 1.40624 11.9531 1.40624ZM17.9801 23.4386C18.2458 23.7218 18.2316 24.1668 17.9484 24.4325L16.4334 25.8536L17.5917 27.0119L19.0185 25.491C19.2842 25.2077 19.7292 25.1935 20.0124 25.4592C20.2956 25.7249 20.3098 26.1698 20.0441 26.453L11.8078 35.2331C10.8243 36.2816 9.17096 36.2242 8.19608 35.2493C7.22132 34.2745 7.16318 32.6215 8.21224 31.6375L16.9863 23.4068C17.2695 23.1412 17.7144 23.1554 17.9801 23.4386ZM16.6291 28.0381L15.4073 26.8162L9.17431 32.6631L9.17429 32.6632C8.74735 33.0636 8.73492 33.7994 9.19044 34.2549C9.64585 34.7103 10.382 34.6977 10.7822 34.2711L11.2572 34.7166L10.7822 34.271L16.6291 28.0381Z" fill="#171201"/>
<path fill-rule="evenodd" clip-rule="evenodd" d="M18.5258 3.53282C16.2677 5.08201 13.3947 7.51035 10.4525 10.4525C7.51035 13.3947 5.08201 16.2677 3.53282 18.5258C2.7549 19.6597 2.21916 20.6091 1.94384 21.3174C1.8052 21.6741 1.74844 21.9302 1.74061 22.0961C1.73931 22.1237 1.73941 22.1462 1.74023 22.1643C1.74919 22.1647 1.75923 22.165 1.77043 22.165C1.90171 22.1649 2.11497 22.1291 2.42461 22.0214C3.04065 21.8073 3.88722 21.3629 4.94129 20.6692C5.26568 20.4557 5.7017 20.5456 5.91517 20.87C6.12863 21.1944 6.03872 21.6304 5.71433 21.8439C4.62079 22.5635 3.66224 23.08 2.88639 23.3497C2.50009 23.484 2.12071 23.5709 1.77152 23.5712C1.42028 23.5715 1.02666 23.4818 0.725696 23.1808C0.393315 22.8483 0.318104 22.4076 0.335929 22.0298C0.35386 21.6497 0.46781 21.2333 0.633126 20.808C0.965729 19.9522 1.57089 18.8997 2.37324 17.7302C3.98456 15.3816 6.47414 12.4422 9.45816 9.45816C12.4422 6.47414 15.3816 3.98456 17.7302 2.37324C18.8997 1.57089 19.9522 0.965729 20.808 0.633126C21.2333 0.46781 21.6497 0.35386 22.0298 0.335929C22.4077 0.318104 22.8484 0.393321 23.1808 0.725732L23.1808 0.725767C23.4818 1.02675 23.5714 1.42036 23.5712 1.77158C23.5709 2.12078 23.4839 2.50015 23.3496 2.88645C23.0799 3.66231 22.5635 4.62086 21.8438 5.7144C21.6304 6.03879 21.1943 6.1287 20.87 5.91524C20.5456 5.70177 20.4557 5.26575 20.6691 4.94136C21.3628 3.88729 21.8072 3.04071 22.0214 2.42467C22.129 2.11502 22.1648 1.90175 22.1649 1.77045C22.1649 1.75924 22.1647 1.74919 22.1643 1.74023C22.1462 1.73941 22.1237 1.73931 22.0961 1.74061C21.9302 1.74844 21.6741 1.8052 21.3174 1.94384C20.6091 2.21916 19.6597 2.7549 18.5258 3.53282ZM22.2276 1.74946C22.2275 1.74954 22.2262 1.74913 22.2238 1.74803C22.2265 1.74884 22.2277 1.74939 22.2276 1.74946ZM22.1565 1.67951C22.1557 1.67751 22.1553 1.6764 22.1554 1.67634C22.1555 1.67628 22.1559 1.67728 22.1565 1.67951ZM1.21537 22.6911L1.22291 22.6836L1.21537 22.6911C1.74913 22.2262 1.74954 22.2275 1.74946 22.2276C1.74939 22.2277 1.74884 22.2265 1.74803 22.2238M10.2532 3.63315C10.2532 3.24482 10.568 2.93002 10.9563 2.93002H10.9568C11.3451 2.93002 11.6599 3.24482 11.6599 3.63315C11.6599 4.02147 11.3451 4.33627 10.9568 4.33627H10.9563C10.568 4.33627 10.2532 4.02147 10.2532 3.63315ZM4.55789 9.39875C4.55789 9.01043 4.87269 8.69563 5.26102 8.69563H5.26151C5.64983 8.69563 5.96463 9.01043 5.96463 9.39875C5.96463 9.78707 5.64983 10.1019 5.26151 10.1019H5.26102C4.87269 10.1019 4.55789 9.78707 4.55789 9.39875ZM11.5189 13.1955C11.5189 12.8072 11.8337 12.4924 12.222 12.4924H12.2225C12.6108 12.4924 12.9256 12.8072 12.9256 13.1955C12.9256 13.5839 12.6108 13.8987 12.2225 13.8987H12.222C11.8337 13.8987 11.5189 13.5839 11.5189 13.1955ZM10.2527 19.3831C10.2527 18.9948 10.5675 18.68 10.9558 18.68H10.9563C11.3446 18.68 11.6594 18.9948 11.6594 19.3831C11.6594 19.7714 11.3446 20.0862 10.9563 20.0862H10.9558C10.5675 20.0862 10.2527 19.7714 10.2527 19.3831Z" fill="#171201"/>
<path d="M26.1329 24.9913C29.9979 24.6153 32.8263 21.1772 32.4502 17.3122C32.0742 13.4472 28.6362 10.6189 24.7712 10.9949C20.9062 11.3709 18.0778 14.809 18.4538 18.674C18.8299 22.539 22.2679 25.3674 26.1329 24.9913Z" fill="#FDC20F"/>
</g>
<defs>
<clipPath id="clip0_624_526">
<rect width="36" height="36" fill="white"/>
</clipPath>
</defs>
</svg>
