<svg width="38" height="38" viewBox="0 0 38 38" fill="none" xmlns="http://www.w3.org/2000/svg">
<path fill-rule="evenodd" clip-rule="evenodd" d="M26.7381 20.1483C27.0515 20.3916 27.5008 20.3453 27.758 20.0433L29.0287 18.5518C29.2946 18.2398 29.2571 17.7714 28.9451 17.5055C28.6331 17.2397 28.1646 17.2772 27.8988 17.5892L27.0879 18.541L26.6538 18.2041C26.3299 17.9528 25.8637 18.0116 25.6124 18.3354C25.3611 18.6592 25.4199 19.1255 25.7438 19.3768L26.7381 20.1483Z" fill="#171201"/>
<mask id="mask0_624_532" style="mask-type:luminance" maskUnits="userSpaceOnUse" x="0" y="0" width="38" height="38">
<path d="M0 3.8147e-06H38V38H0V3.8147e-06Z" fill="white"/>
</mask>
<g mask="url(#mask0_624_532)">
<path fill-rule="evenodd" clip-rule="evenodd" d="M5.92969 34.0269C5.92969 36.2212 7.7084 38 9.90269 38H24.0074C26.2017 38 27.9805 36.2212 27.9805 34.0269V22.9794C27.9805 22.5695 27.6482 22.2372 27.2383 22.2372C26.8284 22.2372 26.4961 22.5695 26.4961 22.9794V34.0269C26.4961 35.4014 25.3819 36.5156 24.0074 36.5156H9.90269C8.52825 36.5156 7.41406 35.4014 7.41406 34.0269V3.97308C7.41406 2.59859 8.52825 1.48438 9.90269 1.48438H24.0074C25.3819 1.48438 26.4961 2.59859 26.4961 3.97308V14.6748C26.4961 15.0847 26.8284 15.4169 27.2383 15.4169C27.6482 15.4169 27.9805 15.0847 27.9805 14.6748V3.97308C27.9805 1.77884 26.2017 0 24.0074 0H9.90269C7.7084 0 5.92969 1.77884 5.92969 3.97308V34.0269Z" fill="#171201"/>
<path fill-rule="evenodd" clip-rule="evenodd" d="M6.15283 33.1509C6.15283 33.5608 6.48512 33.8931 6.89502 33.8931H27.0147C27.4246 33.8931 27.7569 33.5608 27.7569 33.1509C27.7569 32.741 27.4246 32.4087 27.0147 32.4087H6.89502C6.48512 32.4087 6.15283 32.741 6.15283 33.1509Z" fill="#171201"/>
<path fill-rule="evenodd" clip-rule="evenodd" d="M11.9521 3.79785C11.9521 4.20775 12.2844 4.54004 12.6943 4.54004H21.2158C21.6257 4.54004 21.958 4.20775 21.958 3.79785C21.958 3.38795 21.6257 3.05566 21.2158 3.05566H12.6943C12.2844 3.05566 11.9521 3.38795 11.9521 3.79785Z" fill="#171201"/>
<path d="M23.2464 29.0811H10.6641V9.67211H23.2464V29.0811Z" fill="#FDC20F"/>
<path fill-rule="evenodd" clip-rule="evenodd" d="M14.6812 29.7114C15.0911 29.7114 15.4233 29.3791 15.4233 28.9692V23.9445H18.4869V28.9692C18.4869 29.3791 18.8192 29.7114 19.2291 29.7114C19.639 29.7114 19.9712 29.3791 19.9712 28.9692V23.2023C19.9712 22.7924 19.639 22.4601 19.2291 22.4601H14.6812C14.2713 22.4601 13.939 22.7924 13.939 23.2023V28.9692C13.939 29.3791 14.2713 29.7114 14.6812 29.7114Z" fill="#171201"/>
<path fill-rule="evenodd" clip-rule="evenodd" d="M9.2207 29.0811C9.2207 29.491 9.55299 29.8232 9.96289 29.8232H23.9476C24.3575 29.8232 24.6898 29.491 24.6898 29.0811C24.6898 28.6712 24.3575 28.3389 23.9476 28.3389H9.96289C9.55299 28.3389 9.2207 28.6712 9.2207 29.0811Z" fill="#171201"/>
<path fill-rule="evenodd" clip-rule="evenodd" d="M16.9551 15.5718C17.365 15.5718 17.6973 15.2395 17.6973 14.8296V13.3376C17.6973 12.9277 17.365 12.5955 16.9551 12.5955C16.5452 12.5955 16.2129 12.9277 16.2129 13.3376V14.8296C16.2129 15.2395 16.5452 15.5718 16.9551 15.5718Z" fill="#171201"/>
<path fill-rule="evenodd" clip-rule="evenodd" d="M13.146 15.5718C13.5559 15.5718 13.8882 15.2395 13.8882 14.8296V13.3376C13.8882 12.9277 13.5559 12.5955 13.146 12.5955C12.7361 12.5955 12.4038 12.9277 12.4038 13.3376V14.8296C12.4038 15.2395 12.7361 15.5718 13.146 15.5718Z" fill="#171201"/>
<path fill-rule="evenodd" clip-rule="evenodd" d="M20.7637 15.5718C21.1736 15.5718 21.5059 15.2395 21.5059 14.8296V13.3376C21.5059 12.9277 21.1736 12.5955 20.7637 12.5955C20.3538 12.5955 20.0215 12.9277 20.0215 13.3376V14.8296C20.0215 15.2395 20.3538 15.5718 20.7637 15.5718Z" fill="#171201"/>
<path fill-rule="evenodd" clip-rule="evenodd" d="M16.9551 20.3335C17.365 20.3335 17.6973 20.0012 17.6973 19.5913V18.0994C17.6973 17.6895 17.365 17.3572 16.9551 17.3572C16.5452 17.3572 16.2129 17.6895 16.2129 18.0994V19.5913C16.2129 20.0012 16.5452 20.3335 16.9551 20.3335Z" fill="#171201"/>
<path fill-rule="evenodd" clip-rule="evenodd" d="M13.146 20.3335C13.5559 20.3335 13.8882 20.0012 13.8882 19.5913V18.0994C13.8882 17.6895 13.5559 17.3572 13.146 17.3572C12.7361 17.3572 12.4038 17.6895 12.4038 18.0994V19.5913C12.4038 20.0012 12.7361 20.3335 13.146 20.3335Z" fill="#171201"/>
<path fill-rule="evenodd" clip-rule="evenodd" d="M20.7637 20.3335C21.1736 20.3335 21.5059 20.0012 21.5059 19.5913V18.0994C21.5059 17.6895 21.1736 17.3572 20.7637 17.3572C20.3538 17.3572 20.0215 17.6895 20.0215 18.0994V19.5913C20.0215 20.0012 20.3538 20.3335 20.7637 20.3335Z" fill="#171201"/>
<path fill-rule="evenodd" clip-rule="evenodd" d="M22.5537 18.8454C22.5537 21.4732 24.684 23.6035 27.3119 23.6035C29.9397 23.6035 32.07 21.4732 32.07 18.8454C32.07 16.2175 29.9397 14.0872 27.3119 14.0872C24.684 14.0872 22.5537 16.2175 22.5537 18.8454ZM27.3119 22.1191C25.5038 22.1191 24.0381 20.6534 24.0381 18.8454C24.0381 17.0373 25.5038 15.5716 27.3119 15.5716C29.1199 15.5716 30.5857 17.0373 30.5857 18.8454C30.5857 20.6534 29.1199 22.1191 27.3119 22.1191Z" fill="#171201"/>
</g>
</svg>
