<svg width="36" height="36" viewBox="0 0 36 36" fill="none" xmlns="http://www.w3.org/2000/svg">
<g clip-path="url(#clip0_624_496)">
<mask id="mask0_624_496" style="mask-type:luminance" maskUnits="userSpaceOnUse" x="0" y="0" width="36" height="36">
<path d="M0 3.8147e-06H36V36H0V3.8147e-06Z" fill="white"/>
</mask>
<g mask="url(#mask0_624_496)">
<path fill-rule="evenodd" clip-rule="evenodd" d="M25.1144 11.4536V10.0474C25.1144 9.27386 25.7473 8.64111 26.5207 8.64111H29.6857L29.5502 8.40641C28.8931 7.27431 28.1047 6.2455 27.2106 5.33488H20.8821C19.1995 5.33488 17.8228 6.71153 17.8228 8.39418C17.8228 10.0768 19.1998 11.4536 20.8821 11.4536H25.1144Z" fill="#FDC20F"/>
<path fill-rule="evenodd" clip-rule="evenodd" d="M9.84509 10.9726C9.84509 9.55465 8.68493 8.39449 7.26694 8.39449H2.79766C1.46602 10.6795 0.703125 13.3366 0.703125 16.172C0.703125 20.0719 2.14643 23.6347 4.52784 26.3555H12.8139C14.9168 26.3555 16.638 24.6346 16.638 22.5312C16.638 20.428 14.9172 18.707 12.8139 18.707H7.26694C5.84902 18.707 4.68886 17.5469 4.68886 16.1289C4.68886 14.7112 5.84923 13.5508 7.26694 13.5508C8.68444 13.5508 9.84509 12.3906 9.84509 10.9726Z" fill="#FDC20F"/>
<path fill-rule="evenodd" clip-rule="evenodd" d="M0 16.1719C0 25.1033 7.24044 32.3438 16.1719 32.3438C17.8883 32.3438 19.5937 32.0704 21.2243 31.5342C21.5931 31.4129 21.7938 31.0155 21.6725 30.6466C21.5512 30.2777 21.1538 30.077 20.7849 30.1983C19.2961 30.688 17.739 30.9375 16.1719 30.9375C8.01709 30.9375 1.40625 24.3267 1.40625 16.1719C1.40625 8.01702 8.01709 1.40625 16.1719 1.40625C21.435 1.40625 26.3002 4.20769 28.9422 8.75959C29.1371 9.09545 29.5674 9.20968 29.9033 9.01475C30.2391 8.81982 30.3534 8.38953 30.1584 8.05368C27.2648 3.06825 21.9363 3.8147e-06 16.1719 3.8147e-06C7.24044 3.8147e-06 0 7.24037 0 16.1719Z" fill="#171201"/>
<path fill-rule="evenodd" clip-rule="evenodd" d="M24.7632 11.4536C24.7632 11.8419 25.078 12.1567 25.4663 12.1567H31.0913C31.4796 12.1567 31.7944 11.8419 31.7944 11.4536C31.7944 11.0653 31.4796 10.7505 31.0913 10.7505H25.4663C25.078 10.7505 24.7632 11.0653 24.7632 11.4536Z" fill="#171201"/>
<path fill-rule="evenodd" clip-rule="evenodd" d="M20.5571 32.331C20.5571 33.5771 21.5739 34.5938 22.8199 34.5938H33.7373C34.9835 34.5938 36.0001 33.5771 36.0001 32.331V16.882C36.0001 15.6359 34.9835 14.6193 33.7373 14.6193H22.8199C21.5739 14.6193 20.5571 15.6358 20.5571 16.882V32.331ZM22.8199 33.1875C22.3505 33.1875 21.9634 32.8004 21.9634 32.331V16.882C21.9634 16.4126 22.3504 16.0256 22.8199 16.0256H33.7373C34.2069 16.0256 34.5938 16.4126 34.5938 16.882V32.331C34.5938 32.8004 34.2068 33.1875 33.7373 33.1875H22.8199Z" fill="#171201"/>
<path fill-rule="evenodd" clip-rule="evenodd" d="M33.7373 36C34.1256 36 34.4404 35.6852 34.4404 35.2969V33.8906C34.4404 33.5023 34.1256 33.1875 33.7373 33.1875C33.349 33.1875 33.0342 33.5023 33.0342 33.8906V35.2969C33.0342 35.6852 33.349 36 33.7373 36Z" fill="#171201"/>
<path fill-rule="evenodd" clip-rule="evenodd" d="M22.8198 36C23.2081 36 23.5229 35.6852 23.5229 35.2969V33.8906C23.5229 33.5023 23.2081 33.1875 22.8198 33.1875C22.4315 33.1875 22.1167 33.5023 22.1167 33.8906V35.2969C22.1167 35.6852 22.4315 36 22.8198 36Z" fill="#171201"/>
<path fill-rule="evenodd" clip-rule="evenodd" d="M26.521 17.4316C26.1359 17.4316 25.8179 17.1136 25.8179 16.7285V10.0474C25.8179 9.66224 26.1359 9.34423 26.521 9.34423H30.0366C30.4217 9.34423 30.7397 9.66224 30.7397 10.0474V16.7285C30.7397 17.1136 30.4217 17.4316 30.0366 17.4316H26.521ZM24.4116 16.7285C24.4116 17.8903 25.3592 18.8379 26.521 18.8379H30.0366C31.1984 18.8379 32.146 17.8903 32.146 16.7285V10.0474C32.146 8.88559 31.1984 7.93798 30.0366 7.93798H26.521C25.3592 7.93798 24.4116 8.88559 24.4116 10.0474V16.7285Z" fill="#171201"/>
<path fill-rule="evenodd" clip-rule="evenodd" d="M24.7632 30.9346C25.1515 30.9346 25.4663 30.6198 25.4663 30.2314V21.7939C25.4663 21.4056 25.1515 21.0908 24.7632 21.0908C24.3749 21.0908 24.0601 21.4056 24.0601 21.7939V30.2314C24.0601 30.6198 24.3749 30.9346 24.7632 30.9346Z" fill="#171201"/>
<path fill-rule="evenodd" clip-rule="evenodd" d="M28.2788 30.9346C28.6671 30.9346 28.9819 30.6198 28.9819 30.2314V21.7939C28.9819 21.4056 28.6671 21.0908 28.2788 21.0908C27.8905 21.0908 27.5757 21.4056 27.5757 21.7939V30.2314C27.5757 30.6198 27.8905 30.9346 28.2788 30.9346Z" fill="#171201"/>
<path fill-rule="evenodd" clip-rule="evenodd" d="M31.7944 30.9346C32.1828 30.9346 32.4976 30.6198 32.4976 30.2314V21.7939C32.4976 21.4056 32.1828 21.0908 31.7944 21.0908C31.4061 21.0908 31.0913 21.4056 31.0913 21.7939V30.2314C31.0913 30.6198 31.4061 30.9346 31.7944 30.9346Z" fill="#171201"/>
</g>
</g>
<defs>
<clipPath id="clip0_624_496">
<rect width="36" height="36" fill="white"/>
</clipPath>
</defs>
</svg>
