<svg width="36" height="36" viewBox="0 0 36 36" fill="none" xmlns="http://www.w3.org/2000/svg">
<g clip-path="url(#clip0_624_490)">
<path d="M5.27344 16.0273L16.0234 5.27734L31.4707 20.7246L20.7207 31.4746L5.27344 16.0273Z" fill="#FDC20F"/>
<path d="M35.3088 19.0537L17.4858 1.23066C17.3724 1.11726 17.2236 1.04604 17.0641 1.02878L7.58211 0.00401666C7.47762 -0.00718932 7.37195 0.00512409 7.27284 0.0400546C7.17373 0.0749851 7.08369 0.131648 7.00932 0.20589L4.10483 3.11038L2.91764 1.92312C2.64306 1.64861 2.19783 1.64861 1.92318 1.92312C1.6486 2.19769 1.6486 2.64293 1.92318 2.91758L3.11044 4.10484L0.205954 7.00926C0.131628 7.08357 0.0749108 7.1736 0.0399746 7.27273C0.00503847 7.37185 -0.00722706 7.47755 0.00408062 7.58204L1.02885 17.0641C1.04609 17.2236 1.11732 17.3724 1.23072 17.4858L19.0538 35.3089C19.5146 35.7697 20.1199 36.0001 20.7253 36.0001C21.3306 36.0001 21.9359 35.7697 22.3967 35.3089L35.3089 22.3966C36.2304 21.4749 36.2304 19.9754 35.3088 19.0537ZM34.3144 21.4021L21.4022 34.3144C21.0289 34.6876 20.4215 34.6877 20.0482 34.3144L2.40041 16.6666L1.43843 7.76563L4.10483 5.09923L5.33907 6.33346C5.11743 6.72392 4.99945 7.16704 4.99945 7.62824C4.99945 8.33047 5.2729 8.99066 5.76939 9.48715C6.26596 9.98371 6.92607 10.2571 7.6283 10.2571C8.33046 10.2571 8.99065 9.98364 9.48714 9.48715C9.9837 8.99059 10.2571 8.33054 10.2571 7.62824C10.2571 6.92608 9.98363 6.26589 9.48714 5.76933C8.63429 4.91655 7.3365 4.77339 6.33423 5.33971L5.09922 4.10477L7.76563 1.43837L16.6666 2.40041L34.3144 20.0481C34.6877 20.4214 34.6877 21.0289 34.3144 21.4021ZM7.6283 6.40631C7.94134 6.40631 8.25445 6.52549 8.49275 6.76379C8.60663 6.87704 8.69691 7.01176 8.75837 7.16015C8.81983 7.30853 8.85124 7.46763 8.85079 7.62824C8.85079 7.95485 8.72366 8.26184 8.49275 8.49269C8.26184 8.7236 7.95484 8.8508 7.6283 8.8508C7.30176 8.8508 6.99477 8.7236 6.76385 8.49269C6.64997 8.37944 6.55968 8.24472 6.49822 8.09634C6.43676 7.94795 6.40535 7.78885 6.40581 7.62824C6.40581 7.3017 6.53301 6.9947 6.76385 6.76379C6.87729 6.65019 7.01205 6.56013 7.1604 6.49878C7.30875 6.43744 7.46777 6.40601 7.6283 6.40631Z" fill="#171201"/>
<path d="M22.4286 19.0651C22.4903 18.9184 22.5067 18.7567 22.4757 18.6006C22.4448 18.4445 22.368 18.3012 22.2551 18.1891C22.1407 18.0743 21.9941 17.9971 21.8348 17.9676C21.6755 17.9382 21.511 17.9579 21.3631 18.0241L17.1812 19.8991C16.8268 20.058 16.6684 20.4741 16.8272 20.8284C16.9861 21.1828 17.402 21.3412 17.7565 21.1824L18.3558 20.9136L19.5225 22.0804L19.2532 22.6763C19.0933 23.0301 19.2505 23.4467 19.6043 23.6066C19.6952 23.6479 19.7938 23.6692 19.8935 23.6693C20.0289 23.6693 20.1613 23.6303 20.2751 23.5569C20.3888 23.4835 20.4789 23.3789 20.5346 23.2555L22.4203 19.0841C22.4232 19.0778 22.426 19.0715 22.4286 19.0651ZM19.729 20.2979L20.4807 19.9609L20.1418 20.7107L19.729 20.2979ZM23.879 20.8073L20.8099 23.8764C20.6925 23.9937 20.6205 24.1488 20.6064 24.3142C20.5924 24.4795 20.6373 24.6445 20.7332 24.78C20.777 24.8418 20.797 24.87 21.8883 25.9492C22.0197 26.0796 22.1975 26.1526 22.3827 26.1524C22.4757 26.1525 22.5678 26.1341 22.6536 26.0982C22.7394 26.0624 22.8173 26.0098 22.8826 25.9436C23.1557 25.6675 23.1532 25.2223 22.877 24.9492C22.6841 24.7584 22.4915 24.5673 22.2991 24.3759L24.8733 21.8017C25.1479 21.5271 25.1479 21.0819 24.8733 20.8073C24.5987 20.5327 24.1536 20.5327 23.879 20.8073ZM16.5603 18.6377L15.775 17.8524L16.3024 17.3251L16.9931 18.0158C17.1304 18.1531 17.3104 18.2218 17.4903 18.2218C17.6702 18.2218 17.8502 18.1531 17.9875 18.0158C18.2621 17.7413 18.2621 17.296 17.9875 17.0214L17.2968 16.3307L17.8242 15.8032L18.6095 16.5885C18.8841 16.863 19.3292 16.863 19.604 16.5885C19.8785 16.3139 19.8785 15.8687 19.604 15.5941L18.3215 14.3116C18.0468 14.0371 17.6017 14.0371 17.327 14.3116L14.2834 17.3552C14.0088 17.6298 14.0088 18.075 14.2834 18.3497L15.5659 19.6322C15.7032 19.7694 15.8831 19.8381 16.0631 19.8381C16.243 19.8381 16.423 19.7694 16.5602 19.6322C16.8349 19.3575 16.8349 18.9123 16.5603 18.6377ZM15.623 11.7386L14.7787 10.8944C14.6468 10.7626 14.468 10.6885 14.2815 10.6885H14.2808C14.1883 10.6886 14.0968 10.7069 14.0115 10.7424C13.9261 10.7779 13.8486 10.8299 13.7833 10.8953L13.7826 10.896L13.7811 10.8975L10.8518 13.8268C10.8224 13.8563 10.7961 13.8877 10.7729 13.9207C10.6573 14.0556 10.597 14.2292 10.6041 14.4067C10.6112 14.5842 10.6852 14.7525 10.8113 14.8776C10.8369 14.9031 11.442 15.5035 11.6876 15.7407C12.1268 16.1647 12.6757 16.373 13.2497 16.373C13.9609 16.373 14.7103 16.0531 15.3362 15.4273C16.5252 14.2383 16.6403 12.756 15.623 11.7386ZM14.3419 14.4328C13.8568 14.918 13.1499 15.1976 12.6646 14.729C12.5433 14.6113 12.4225 14.493 12.3022 14.3741C12.6323 14.0417 12.9628 13.7097 13.2938 13.3782C13.4847 13.1872 13.9291 12.7415 14.2825 12.3869L14.6286 12.733C15.2842 13.3886 14.5749 14.1999 14.3419 14.4328Z" fill="#171201"/>
</g>
<defs>
<clipPath id="clip0_624_490">
<rect width="36" height="36" fill="white"/>
</clipPath>
</defs>
</svg>
