<svg width="18" height="14" viewBox="0 0 18 14" fill="none" xmlns="http://www.w3.org/2000/svg">
<path d="M2.625 0.25C1.38412 0.25 0.375 1.25912 0.375 2.5V11.5C0.375 12.7409 1.38412 13.75 2.625 13.75H15.375C16.6159 13.75 17.625 12.7409 17.625 11.5V2.5C17.625 1.25912 16.6159 0.25 15.375 0.25H2.625ZM3.1311 1.75H14.8696L10.2913 6.09912C9.56751 6.78725 8.43249 6.78725 7.70874 6.09912L3.1311 1.75ZM1.875 2.62671L6.67529 7.18677C7.32704 7.80589 8.16375 8.11548 9 8.11548C9.83625 8.11548 10.6726 7.80552 11.3247 7.18677L16.125 2.62671V11.5C16.125 11.9136 15.7886 12.25 15.375 12.25H2.625C2.21137 12.25 1.875 11.9136 1.875 11.5V2.62671Z" fill="#171201"/>
</svg>
