<svg width="22" height="22" viewBox="0 0 22 22" fill="none" xmlns="http://www.w3.org/2000/svg">
<path d="M7.56183 3.6665C6.17777 3.6665 5.041 4.80327 5.041 6.18734V8.64103L4.22459 8.89258V8.89168C3.42689 9.13695 2.74551 9.66525 2.30801 10.3759L1.17113 12.2236C1.12172 12.3005 1.08815 12.3864 1.07237 12.4765C1.0566 12.5665 1.05893 12.6588 1.07924 12.7479C1.09955 12.8371 1.13743 12.9212 1.19066 12.9955C1.24388 13.0699 1.3114 13.1328 1.38924 13.1807C1.46709 13.2286 1.55371 13.2605 1.64404 13.2746C1.73436 13.2886 1.82658 13.2845 1.9153 13.2625C2.00401 13.2404 2.08745 13.201 2.16072 13.1463C2.23399 13.0916 2.29563 13.0229 2.34203 12.9442L3.47891 11.0965C3.74174 10.6696 4.15092 10.3538 4.62922 10.2067L5.041 10.0796V13.0167C5.041 13.2528 5.08064 13.4821 5.15379 13.6961C5.18721 13.7938 5.24219 13.8827 5.31465 13.9562C5.3871 14.0297 5.47518 14.0859 5.57235 14.1208C5.66951 14.1556 5.77327 14.1681 5.87593 14.1573C5.97859 14.1466 6.07751 14.1129 6.16535 14.0587L10.1722 11.5871C10.1749 11.5853 10.1776 11.5835 10.1802 11.5817C10.4717 11.3961 10.8433 11.4364 11.088 11.6811C11.3846 11.9779 11.3781 12.4381 11.0736 12.7266L9.8168 13.877C9.76723 13.9112 9.72239 13.9518 9.68342 13.9978C9.68222 13.9993 9.68102 14.0008 9.67983 14.0023L6.30142 17.0916C5.75277 17.5933 5.03704 17.8714 4.29352 17.8722L1.60261 17.8748C1.51151 17.8737 1.42108 17.8906 1.33659 17.9247C1.2521 17.9588 1.17522 18.0093 1.11043 18.0734C1.04564 18.1374 0.994225 18.2137 0.959173 18.2978C0.924121 18.3819 0.906132 18.4721 0.906251 18.5632C0.906369 18.6544 0.924593 18.7445 0.959864 18.8285C0.995135 18.9125 1.04675 18.9887 1.11171 19.0526C1.17667 19.1165 1.25367 19.1668 1.33825 19.2007C1.42283 19.2345 1.5133 19.2512 1.6044 19.2498L3.80923 19.248C3.83775 19.2513 3.86646 19.2528 3.89517 19.2525L8.41942 19.2498C9.50594 19.2487 10.5532 18.8414 11.3547 18.1085L14.6168 15.1248H18.5618C19.9459 15.1248 21.0827 13.9881 21.0827 12.604V6.18734C21.0827 4.80327 19.9459 3.6665 18.5618 3.6665H7.56183ZM7.56183 5.0415H18.5618C19.2027 5.0415 19.7077 5.54648 19.7077 6.18734V6.87484H6.416V6.18734C6.416 5.54648 6.92098 5.0415 7.56183 5.0415ZM6.416 8.24984H19.7077V12.604C19.7077 13.2449 19.2027 13.7498 18.5618 13.7498H14.4467C14.4203 13.7462 14.3937 13.7441 14.367 13.7436C14.335 13.7434 14.303 13.7455 14.2712 13.7498H11.9921L12.0109 13.7328C12.0139 13.7302 12.0169 13.7275 12.0198 13.7248C12.8731 12.9161 12.891 11.5404 12.0601 10.7089C11.3654 10.0142 10.2712 9.89449 9.44261 10.4215L6.416 12.288V9.2605C6.42842 9.18582 6.42842 9.10959 6.416 9.03491V8.24984ZM10.4891 15.1248H12.5793L10.4264 17.0942C9.87766 17.5961 9.16258 17.8741 8.41852 17.8748L7.48127 17.8757L10.4891 15.1248Z" fill="#7F7E79"/>
</svg>
