<svg width="16" height="16" viewBox="0 0 16 16" fill="none" xmlns="http://www.w3.org/2000/svg">
<path d="M13.0559 0C12.3 0 11.5442 0.286556 10.9714 0.859625L1.64879 10.1814C1.4719 10.3583 1.34236 10.5783 1.27368 10.8198L0.0241358 15.1952C-0.0066803 15.3035 -0.00801134 15.418 0.0202804 15.527C0.0485722 15.6359 0.105459 15.7353 0.185058 15.8149C0.264656 15.8945 0.364075 15.9514 0.47303 15.9797C0.581986 16.008 0.696522 16.0067 0.80479 15.9759L5.18106 14.7263L5.18189 14.7255C5.42176 14.6565 5.64119 14.5286 5.81858 14.3512L15.1404 5.0286C16.2864 3.88253 16.2864 2.0057 15.1404 0.859625C14.5676 0.286556 13.8118 0 13.0559 0ZM13.0559 1.25612C13.4858 1.25612 13.9152 1.42178 14.2462 1.75298H14.247C14.9103 2.41628 14.9103 3.47195 14.247 4.13525L13.4302 4.9521L11.0479 2.56983L11.8648 1.75298C12.1958 1.42178 12.626 1.25612 13.0559 1.25612ZM10.1545 3.46318L12.5368 5.84545L4.92441 13.4579C4.89972 13.4824 4.86844 13.5012 4.8331 13.5113L1.5509 14.4491L2.48867 11.1661V11.1653C2.49833 11.1313 2.51602 11.1009 2.54214 11.0748L10.1545 3.46318Z" fill="black"/>
</svg>
