<svg width="16" height="18" viewBox="0 0 16 18" fill="none" xmlns="http://www.w3.org/2000/svg">
<path d="M8 0.375C4.06512 0.375 0.875 3.56512 0.875 7.5C0.875 12.375 7.12766 17.5635 7.39429 17.7825C7.57016 17.9276 7.78512 18 8 18C8.21488 18 8.42984 17.9276 8.60571 17.7825C8.87234 17.5635 15.125 12.375 15.125 7.5C15.125 3.56512 11.9349 0.375 8 0.375ZM8 1.875C11.1016 1.875 13.625 4.39838 13.625 7.5C13.625 10.6511 10.1274 14.4866 8 16.3308C5.87375 14.4877 2.375 10.6515 2.375 7.5C2.375 4.39838 4.89838 1.875 8 1.875ZM8 5.62866C6.965 5.62866 6.125 6.465 6.125 7.5C6.125 8.535 6.965 9.37134 8 9.37134C9.035 9.37134 9.875 8.535 9.875 7.5C9.875 7.305 9.84474 7.11741 9.79224 6.94116C9.64599 7.26741 9.32 7.5 8.9375 7.5C8.42 7.5 8 7.07991 8 6.56616C8 6.18366 8.22893 5.85393 8.55518 5.71143C8.37893 5.65893 8.19125 5.62866 8 5.62866Z" fill="#171201"/>
</svg>
