<svg width="14" height="16" viewBox="0 0 14 16" fill="none" xmlns="http://www.w3.org/2000/svg">
<path d="M7.00981 0.285645C3.50151 0.285645 0.657227 3.12993 0.657227 6.63823C0.657227 10.9847 6.23204 15.6107 6.46976 15.806C6.62657 15.9354 6.81823 15.9999 7.00981 15.9999C7.20139 15.9999 7.39305 15.9354 7.54986 15.806C7.78758 15.6107 13.3624 10.9847 13.3624 6.63823C13.3624 3.12993 10.5181 0.285645 7.00981 0.285645ZM7.00981 1.62303C9.77519 1.62303 12.025 3.87285 12.025 6.63823C12.025 9.44774 8.90656 12.8674 7.00981 14.5117C5.11407 12.8684 1.99461 9.44808 1.99461 6.63823C1.99461 3.87285 4.24443 1.62303 7.00981 1.62303ZM7.00981 4.96976C6.08701 4.96976 5.33808 5.71543 5.33808 6.63823C5.33808 7.56102 6.08701 8.30669 7.00981 8.30669C7.93261 8.30669 8.68154 7.56102 8.68154 6.63823C8.68154 6.46437 8.65456 6.29712 8.60775 6.13997C8.47736 6.43085 8.18671 6.63823 7.84568 6.63823C7.38428 6.63823 7.00981 6.26368 7.00981 5.80563C7.00981 5.46459 7.21392 5.1706 7.5048 5.04355C7.34766 4.99674 7.18033 4.96976 7.00981 4.96976Z" fill="#7F7E79"/>
</svg>
