<svg width="22" height="16" viewBox="0 0 22 16" fill="none" xmlns="http://www.w3.org/2000/svg">
<path d="M14.2383 0.989301C14.2016 0.990202 14.1651 0.993792 14.1289 1.00004H2.25C1.29252 1.00004 0.5 1.79257 0.5 2.75004V5.26469C0.500026 5.371 0.522651 5.47609 0.566375 5.573C0.610099 5.6699 0.673923 5.7564 0.753615 5.82677C0.833308 5.89714 0.927047 5.94976 1.02862 5.98114C1.13019 6.01253 1.23728 6.02197 1.34277 6.00883C1.38843 6.00313 1.44441 6.00004 1.5 6.00004C2.61539 6.00004 3.5 6.88465 3.5 8.00004C3.5 9.11544 2.61539 10 1.5 10C1.44441 10 1.38843 9.99694 1.34277 9.99125C1.23728 9.97812 1.13019 9.98755 1.02862 10.0189C0.927047 10.0503 0.833308 10.1029 0.753615 10.1733C0.673923 10.2437 0.610099 10.3302 0.566375 10.4271C0.522651 10.524 0.500026 10.6291 0.5 10.7354V13.25C0.5 14.2075 1.29252 15 2.25 15H14.127C14.2075 15.0133 14.2896 15.0133 14.3701 15H19.75C20.7075 15 21.5 14.2075 21.5 13.25V10.7354C21.5 10.6291 21.4773 10.524 21.4336 10.4271C21.3899 10.3302 21.3261 10.2437 21.2464 10.1733C21.1667 10.1029 21.073 10.0503 20.9714 10.0189C20.8698 9.98755 20.7627 9.97812 20.6572 9.99125C20.6116 9.99696 20.5556 10 20.5 10C19.3846 10 18.5 9.11544 18.5 8.00004C18.5 6.88465 19.3846 6.00004 20.5 6.00004C20.5556 6.00004 20.6116 6.00314 20.6572 6.00883C20.7627 6.02197 20.8698 6.01253 20.9714 5.98114C21.073 5.94976 21.1667 5.89714 21.2464 5.82677C21.3261 5.7564 21.3899 5.6699 21.4336 5.573C21.4773 5.47609 21.5 5.371 21.5 5.26469V2.75004C21.5 1.79257 20.7075 1.00004 19.75 1.00004H14.373C14.3285 0.992413 14.2834 0.988818 14.2383 0.989301ZM2.25 2.50004H13.5V3.25004C13.4986 3.34943 13.517 3.4481 13.554 3.54032C13.5911 3.63255 13.6461 3.71649 13.7159 3.78727C13.7857 3.85805 13.8688 3.91425 13.9605 3.95261C14.0522 3.99097 14.1506 4.01072 14.25 4.01072C14.3494 4.01072 14.4478 3.99097 14.5395 3.95261C14.6312 3.91425 14.7143 3.85805 14.7841 3.78727C14.8539 3.71649 14.9089 3.63255 14.946 3.54032C14.983 3.4481 15.0014 3.34943 15 3.25004V2.50004H19.75C19.8975 2.50004 20 2.60252 20 2.75004V4.60161C18.3203 4.85542 17 6.25253 17 8.00004C17 9.74756 18.3203 11.1447 20 11.3985V13.25C20 13.3976 19.8975 13.5 19.75 13.5H15V12.75C15.0014 12.6497 14.9827 12.55 14.9449 12.457C14.9071 12.364 14.8511 12.2795 14.78 12.2086C14.709 12.1376 14.6245 12.0817 14.5314 12.044C14.4383 12.0063 14.3387 11.9877 14.2383 11.9893C14.0395 11.9924 13.8502 12.0743 13.7117 12.2169C13.5733 12.3595 13.4971 12.5513 13.5 12.75V13.5H2.25C2.10248 13.5 2 13.3976 2 13.25V11.3985C3.67974 11.1447 5 9.74756 5 8.00004C5 6.25253 3.67974 4.85542 2 4.60161V2.75004C2 2.60252 2.10248 2.50004 2.25 2.50004ZM14.2383 4.9893C14.0395 4.99241 13.8502 5.07427 13.7117 5.21691C13.5733 5.35955 13.4971 5.5513 13.5 5.75004V6.75004C13.4986 6.84943 13.517 6.9481 13.554 7.04032C13.5911 7.13255 13.6461 7.21649 13.7159 7.28727C13.7857 7.35805 13.8688 7.41425 13.9605 7.45261C14.0522 7.49097 14.1506 7.51072 14.25 7.51072C14.3494 7.51072 14.4478 7.49097 14.5395 7.45261C14.6312 7.41425 14.7143 7.35805 14.7841 7.28727C14.8539 7.21649 14.9089 7.13255 14.946 7.04032C14.983 6.9481 15.0014 6.84943 15 6.75004V5.75004C15.0014 5.64966 14.9827 5.55001 14.9449 5.457C14.9071 5.36398 14.8511 5.2795 14.78 5.20856C14.709 5.13762 14.6245 5.08166 14.5314 5.04399C14.4383 5.00633 14.3387 4.98773 14.2383 4.9893ZM14.2383 8.4893C14.0395 8.49241 13.8502 8.57427 13.7117 8.71691C13.5733 8.85955 13.4971 9.0513 13.5 9.25004V10.25C13.4986 10.3494 13.517 10.4481 13.554 10.5403C13.5911 10.6326 13.6461 10.7165 13.7159 10.7873C13.7857 10.858 13.8688 10.9142 13.9605 10.9526C14.0522 10.991 14.1506 11.0107 14.25 11.0107C14.3494 11.0107 14.4478 10.991 14.5395 10.9526C14.6312 10.9142 14.7143 10.858 14.7841 10.7873C14.8539 10.7165 14.9089 10.6326 14.946 10.5403C14.983 10.4481 15.0014 10.3494 15 10.25V9.25004C15.0014 9.14966 14.9827 9.05001 14.9449 8.957C14.9071 8.86398 14.8511 8.7795 14.78 8.70856C14.709 8.63762 14.6245 8.58166 14.5314 8.54399C14.4383 8.50633 14.3387 8.48773 14.2383 8.4893Z" fill="#7F7E79"/>
</svg>
