<svg width="20" height="20" viewBox="0 0 20 20" fill="none" xmlns="http://www.w3.org/2000/svg">
<path d="M10 0C4.48603 0 0 4.48604 0 10C0 15.514 4.48603 20 10 20C15.514 20 20 15.514 20 10C20 4.48604 15.514 0 10 0ZM10 1.5C14.7033 1.5 18.5 5.2967 18.5 10C18.5 14.7033 14.7033 18.5 10 18.5C5.29669 18.5 1.5 14.7033 1.5 10C1.5 5.2967 5.29669 1.5 10 1.5Z" fill="#7F7E79"/>
<path d="M8.83008 12.1058C8.91365 12.2284 8.95543 12.3482 8.95543 12.4652C8.95543 12.6212 8.89137 12.7493 8.76323 12.8496C8.64067 12.9499 8.49582 13 8.32869 13C8.22284 13 8.11978 12.9749 8.0195 12.9248C7.91922 12.8747 7.83565 12.7967 7.7688 12.6908L6.66574 11.0529C6.57103 10.9081 6.47075 10.805 6.3649 10.7437C6.25905 10.6769 6.12535 10.6435 5.96379 10.6435H5.28691V12.3315C5.28691 12.532 5.22841 12.6908 5.11142 12.8078C5 12.9248 4.8468 12.9833 4.65181 12.9833C4.45125 12.9833 4.29248 12.9248 4.17549 12.8078C4.0585 12.6908 4 12.532 4 12.3315V7.65181C4 7.45682 4.05292 7.30641 4.15877 7.20056C4.26462 7.09471 4.41504 7.04178 4.61003 7.04178H6.70752C7.39833 7.04178 7.91922 7.19499 8.2702 7.50139C8.62674 7.80223 8.80501 8.23955 8.80501 8.81337C8.80501 9.26462 8.67967 9.64067 8.42897 9.9415C8.17827 10.2423 7.82451 10.4401 7.36769 10.5348C7.53482 10.5682 7.68245 10.6351 7.81059 10.7354C7.94429 10.8301 8.07242 10.9694 8.19499 11.1532L8.83008 12.1058ZM6.51532 9.65738C6.88858 9.65738 7.15877 9.59332 7.32591 9.46518C7.49304 9.33148 7.5766 9.12535 7.5766 8.8468C7.5766 8.56267 7.49304 8.35655 7.32591 8.22841C7.15877 8.10028 6.88858 8.03621 6.51532 8.03621H5.2702V9.65738H6.51532Z" fill="#7F7E79"/>
<path d="M15.0906 7C15.2744 7 15.422 7.06128 15.5335 7.18384C15.6505 7.30084 15.709 7.45404 15.709 7.64345V12.39C15.709 12.5738 15.656 12.7187 15.5502 12.8245C15.4443 12.9304 15.3051 12.9833 15.1324 12.9833C14.9652 12.9833 14.8287 12.9304 14.7229 12.8245C14.617 12.7187 14.5641 12.5738 14.5641 12.39V9.44011L13.3775 11.6713C13.2995 11.8162 13.2131 11.922 13.1184 11.9889C13.0293 12.0557 12.9207 12.0891 12.7925 12.0891C12.67 12.0891 12.5613 12.0557 12.4666 11.9889C12.3719 11.922 12.2856 11.8162 12.2076 11.6713L11.0209 9.48189V12.39C11.0209 12.5682 10.968 12.7131 10.8622 12.8245C10.7563 12.9304 10.617 12.9833 10.4443 12.9833C10.2772 12.9833 10.1407 12.9304 10.0349 12.8245C9.92901 12.7187 9.87609 12.5738 9.87609 12.39V7.64345C9.87609 7.45404 9.9318 7.30084 10.0432 7.18384C10.1602 7.06128 10.3106 7 10.4945 7C10.7619 7 10.9652 7.14206 11.1045 7.42618L12.8009 10.6435L14.4889 7.42618C14.6393 7.14206 14.8399 7 15.0906 7Z" fill="#7F7E79"/>
</svg>
