<svg width="22" height="20" viewBox="0 0 22 20" fill="none" xmlns="http://www.w3.org/2000/svg">
<path d="M2.75 0.5C1.51625 0.5 0.5 1.51625 0.5 2.75V3.75C0.5 4.4318 1.0682 5 1.75 5H3.5V16.25C3.5 18.036 4.96403 19.5 6.75 19.5H19.25C19.2913 19.4992 19.3325 19.4949 19.373 19.4873C20.5495 19.4213 21.5 18.4417 21.5 17.25V16.25C21.5 15.5682 20.9318 15 20.25 15H18.5V2.75C18.5 1.51625 17.4838 0.5 16.25 0.5H2.75ZM2.75 2H14.1533C14.0673 2.23724 14 2.4847 14 2.75V3.5H4.37305C4.29253 3.48677 4.2104 3.48677 4.12988 3.5H2V2.75C2 2.32675 2.32675 2 2.75 2ZM16.25 2C16.6733 2 17 2.32675 17 2.75V15.627C16.9868 15.7075 16.9868 15.7896 17 15.8701V17.25C17 17.5153 17.0673 17.7628 17.1533 18H6.75C5.77497 18 5 17.225 5 16.25V5H14.25C14.9318 5 15.5 4.4318 15.5 3.75V2.75C15.5 2.32675 15.8268 2 16.25 2ZM7.75 7C7.65062 6.99859 7.55194 7.01696 7.45972 7.05402C7.36749 7.09108 7.28355 7.1461 7.21277 7.21588C7.142 7.28566 7.08579 7.36882 7.04743 7.46051C7.00907 7.5522 6.98932 7.65061 6.98932 7.75C6.98932 7.84939 7.00907 7.9478 7.04743 8.03949C7.08579 8.13118 7.142 8.21434 7.21277 8.28412C7.28355 8.3539 7.36749 8.40892 7.45972 8.44598C7.55194 8.48304 7.65062 8.50141 7.75 8.5H14.25C14.3494 8.50141 14.4481 8.48304 14.5403 8.44598C14.6325 8.40892 14.7164 8.3539 14.7872 8.28412C14.858 8.21434 14.9142 8.13118 14.9526 8.03949C14.9909 7.9478 15.0107 7.84939 15.0107 7.75C15.0107 7.65061 14.9909 7.5522 14.9526 7.46051C14.9142 7.36882 14.858 7.28566 14.7872 7.21588C14.7164 7.1461 14.6325 7.09108 14.5403 7.05402C14.4481 7.01696 14.3494 6.99859 14.25 7H7.75ZM7.75 10.5C7.65062 10.4986 7.55194 10.517 7.45972 10.554C7.36749 10.5911 7.28355 10.6461 7.21277 10.7159C7.142 10.7857 7.08579 10.8688 7.04743 10.9605C7.00907 11.0522 6.98932 11.1506 6.98932 11.25C6.98932 11.3494 7.00907 11.4478 7.04743 11.5395C7.08579 11.6312 7.142 11.7143 7.21277 11.7841C7.28355 11.8539 7.36749 11.9089 7.45972 11.946C7.55194 11.983 7.65062 12.0014 7.75 12H14.25C14.3494 12.0014 14.4481 11.983 14.5403 11.946C14.6325 11.9089 14.7164 11.8539 14.7872 11.7841C14.858 11.7143 14.9142 11.6312 14.9526 11.5395C14.9909 11.4478 15.0107 11.3494 15.0107 11.25C15.0107 11.1506 14.9909 11.0522 14.9526 10.9605C14.9142 10.8688 14.858 10.7857 14.7872 10.7159C14.7164 10.6461 14.6325 10.5911 14.5403 10.554C14.4481 10.517 14.3494 10.4986 14.25 10.5H7.75ZM7.75 14C7.65062 13.9986 7.55194 14.017 7.45972 14.054C7.36749 14.0911 7.28355 14.1461 7.21277 14.2159C7.142 14.2857 7.08579 14.3688 7.04743 14.4605C7.00907 14.5522 6.98932 14.6506 6.98932 14.75C6.98932 14.8494 7.00907 14.9478 7.04743 15.0395C7.08579 15.1312 7.142 15.2143 7.21277 15.2841C7.28355 15.3539 7.36749 15.4089 7.45972 15.446C7.55194 15.483 7.65062 15.5014 7.75 15.5H14.25C14.3494 15.5014 14.4481 15.483 14.5403 15.446C14.6325 15.4089 14.7164 15.3539 14.7872 15.2841C14.858 15.2143 14.9142 15.1312 14.9526 15.0395C14.9909 14.9478 15.0107 14.8494 15.0107 14.75C15.0107 14.6506 14.9909 14.5522 14.9526 14.4605C14.9142 14.3688 14.858 14.2857 14.7872 14.2159C14.7164 14.1461 14.6325 14.0911 14.5403 14.054C14.4481 14.017 14.3494 13.9986 14.25 14H7.75ZM18.5 16.5H20V17.25C20 17.6733 19.6733 18 19.25 18C18.8267 18 18.5 17.6733 18.5 17.25V16.5Z" fill="#7F7E79"/>
</svg>
