<svg width="20" height="20" viewBox="0 0 20 20" fill="none" xmlns="http://www.w3.org/2000/svg">
<path d="M10 -0.000976562C4.48615 -0.000976562 0 4.48517 0 9.99902C0 11.6367 0.431354 13.1674 1.13086 14.5322L0.046875 18.4131C-0.205601 19.3148 0.685963 20.2063 1.58789 19.9541L5.47168 18.8701C6.83537 19.5682 8.36388 19.999 10 19.999C15.5139 19.999 20 15.5129 20 9.99902C20 4.48517 15.5139 -0.000976562 10 -0.000976562ZM10 1.49902C14.7031 1.49902 18.5 5.29588 18.5 9.99902C18.5 14.7022 14.7031 18.499 10 18.499C8.49921 18.499 7.0953 18.1088 5.87109 17.4268C5.69853 17.3306 5.495 17.3064 5.30469 17.3594L1.61133 18.3896L2.64258 14.6982C2.69585 14.5076 2.67163 14.3037 2.5752 14.1309C1.89183 12.9058 1.5 11.5013 1.5 9.99902C1.5 5.29588 5.29685 1.49902 10 1.49902ZM10.0088 4.55176C9.86732 4.55005 9.72824 4.58838 9.60763 4.66234C9.48702 4.7363 9.38978 4.84286 9.32715 4.96973L8.1377 7.37988L5.47754 7.7666C5.33903 7.78669 5.2089 7.84514 5.10188 7.93533C4.99485 8.02551 4.91519 8.14385 4.87191 8.27695C4.82863 8.41005 4.82345 8.5526 4.85696 8.68849C4.89046 8.82438 4.96132 8.94818 5.06152 9.0459L6.98633 10.9219L6.53223 13.5713C6.50856 13.7092 6.52393 13.851 6.57662 13.9806C6.62931 14.1102 6.71721 14.2225 6.83038 14.3048C6.94356 14.3871 7.07749 14.4361 7.21705 14.4463C7.35661 14.4564 7.49622 14.4273 7.62012 14.3623L10 13.1113L12.3799 14.3623C12.5038 14.4273 12.6434 14.4564 12.783 14.4463C12.9225 14.4361 13.0564 14.3871 13.1696 14.3048C13.2828 14.2225 13.3707 14.1102 13.4234 13.9806C13.4761 13.851 13.4914 13.7092 13.4678 13.5713L13.0137 10.9219L14.9385 9.0459C15.0387 8.94818 15.1095 8.82438 15.143 8.68849C15.1766 8.5526 15.1714 8.41005 15.1281 8.27695C15.0848 8.14385 15.0051 8.02551 14.8981 7.93533C14.7911 7.84514 14.661 7.78669 14.5225 7.7666L11.8623 7.37988L10.6729 4.96973C10.6115 4.84554 10.517 4.74076 10.3998 4.66698C10.2826 4.59321 10.1473 4.55333 10.0088 4.55176ZM10 6.99707L10.6914 8.39746C10.7452 8.50644 10.8247 8.60072 10.923 8.67217C11.0214 8.74362 11.1356 8.7901 11.2559 8.80762L12.8027 9.03223L11.6836 10.123C11.5966 10.208 11.5317 10.3129 11.4942 10.4286C11.4568 10.5442 11.4481 10.6673 11.4688 10.7871L11.7324 12.3281L10.3486 11.6006C10.2411 11.5441 10.1215 11.5146 10 11.5146C9.87854 11.5146 9.75891 11.5441 9.65137 11.6006L8.26758 12.3281L8.53125 10.7871C8.55194 10.6673 8.5432 10.5442 8.50577 10.4286C8.46834 10.3129 8.40336 10.208 8.31641 10.123L7.19727 9.03223L8.74414 8.80762C8.86442 8.7901 8.97863 8.74362 9.07696 8.67217C9.17529 8.60072 9.25478 8.50644 9.30859 8.39746L10 6.99707Z" fill="#7F7E79"/>
</svg>
