<svg width="20" height="16" viewBox="0 0 20 16" fill="none" xmlns="http://www.w3.org/2000/svg">
<path d="M2.25 0C1.01625 0 0 1.01625 0 2.25V13.75C0 14.9837 1.01625 16 2.25 16H17.75C18.9837 16 20 14.9837 20 13.75V2.25C20 1.01625 18.9837 0 17.75 0H2.25ZM2.25 1.5H17.75C18.1732 1.5 18.5 1.82675 18.5 2.25V13.75C18.5 14.1732 18.1732 14.5 17.75 14.5H2.25C1.82675 14.5 1.5 14.1732 1.5 13.75V2.25C1.5 1.82675 1.82675 1.5 2.25 1.5ZM6 4.5C5.60217 4.5 5.22064 4.65803 4.93934 4.93934C4.65803 5.22064 4.5 5.60217 4.5 6C4.5 6.39782 4.65803 6.77936 4.93934 7.06066C5.22064 7.34196 5.60217 7.5 6 7.5C6.39782 7.5 6.77936 7.34196 7.06066 7.06066C7.34196 6.77936 7.5 6.39782 7.5 6C7.5 5.60217 7.34196 5.22064 7.06066 4.93934C6.77936 4.65803 6.39782 4.5 6 4.5ZM11.25 5.5C11.1506 5.49859 11.0519 5.51696 10.9597 5.55402C10.8675 5.59108 10.7835 5.6461 10.7128 5.71588C10.642 5.78566 10.5858 5.86882 10.5474 5.96051C10.5091 6.0522 10.4893 6.15061 10.4893 6.25C10.4893 6.34939 10.5091 6.4478 10.5474 6.53949C10.5858 6.63118 10.642 6.71434 10.7128 6.78412C10.7835 6.8539 10.8675 6.90892 10.9597 6.94598C11.0519 6.98304 11.1506 7.00141 11.25 7H15.75C15.8494 7.00141 15.9481 6.98304 16.0403 6.94598C16.1325 6.90892 16.2164 6.8539 16.2872 6.78412C16.358 6.71434 16.4142 6.63118 16.4526 6.53949C16.4909 6.4478 16.5107 6.34939 16.5107 6.25C16.5107 6.15061 16.4909 6.0522 16.4526 5.96051C16.4142 5.86882 16.358 5.78566 16.2872 5.71588C16.2164 5.6461 16.1325 5.59108 16.0403 5.55402C15.9481 5.51696 15.8494 5.49859 15.75 5.5H11.25ZM4.25 8.5C3.836 8.5 3.5 8.836 3.5 9.25C3.5 10 3.50019 11.5 5.95019 11.5H6.0498C8.4998 11.5 8.5 10 8.5 9.25C8.5 8.836 8.164 8.5 7.75 8.5H4.25ZM11.25 9C11.1506 8.99859 11.0519 9.01696 10.9597 9.05402C10.8675 9.09108 10.7835 9.1461 10.7128 9.21588C10.642 9.28566 10.5858 9.36882 10.5474 9.46051C10.5091 9.5522 10.4893 9.65061 10.4893 9.75C10.4893 9.84939 10.5091 9.9478 10.5474 10.0395C10.5858 10.1312 10.642 10.2143 10.7128 10.2841C10.7835 10.3539 10.8675 10.4089 10.9597 10.446C11.0519 10.483 11.1506 10.5014 11.25 10.5H15.75C15.8494 10.5014 15.9481 10.483 16.0403 10.446C16.1325 10.4089 16.2164 10.3539 16.2872 10.2841C16.358 10.2143 16.4142 10.1312 16.4526 10.0395C16.4909 9.9478 16.5107 9.84939 16.5107 9.75C16.5107 9.65061 16.4909 9.5522 16.4526 9.46051C16.4142 9.36882 16.358 9.28566 16.2872 9.21588C16.2164 9.1461 16.1325 9.09108 16.0403 9.05402C15.9481 9.01696 15.8494 8.99859 15.75 9H11.25Z" fill="#7F7E79"/>
</svg>
