<svg width="20" height="20" viewBox="0 0 20 20" fill="none" xmlns="http://www.w3.org/2000/svg">
<path d="M10.0009 0C9.21248 0 8.45226 0.0997142 7.72651 0.268555C7.57518 0.303878 7.43855 0.385336 7.33551 0.501671C7.23247 0.618005 7.16811 0.763473 7.15132 0.917969L6.99214 2.36914C6.94008 2.84468 6.66538 3.26543 6.25093 3.50488C5.8373 3.74386 5.33524 3.77033 4.89741 3.57812H4.89644L3.56343 2.99121C3.42125 2.92864 3.26314 2.91176 3.11096 2.9429C2.95877 2.97403 2.82 3.05165 2.71382 3.16504C1.67757 4.26979 0.882268 5.60753 0.430616 7.10059C0.385626 7.24919 0.387862 7.40809 0.437013 7.55537C0.486165 7.70265 0.57981 7.83105 0.70503 7.92285L1.88765 8.79004C2.27382 9.07396 2.50093 9.5214 2.50093 10C2.50093 10.4789 2.27383 10.9267 1.88765 11.21L0.70503 12.0762C0.57981 12.168 0.486165 12.2964 0.437013 12.4437C0.387862 12.5909 0.385626 12.7498 0.430616 12.8984C0.88222 14.3913 1.67689 15.7301 2.71382 16.835C2.82012 16.9482 2.95894 17.0256 3.11112 17.0566C3.2633 17.0875 3.42134 17.0705 3.56343 17.0078L4.89644 16.4209C5.33447 16.2283 5.83701 16.256 6.25093 16.4951C6.66538 16.7346 6.94008 17.1553 6.99214 17.6309L7.15132 19.082C7.16823 19.2362 7.23254 19.3814 7.33537 19.4975C7.43821 19.6136 7.57452 19.695 7.72554 19.7305C8.45161 19.8999 9.21248 20 10.0009 20C10.7894 20 11.5496 19.9003 12.2753 19.7314C12.4267 19.6961 12.5633 19.6147 12.6663 19.4983C12.7694 19.382 12.8337 19.2365 12.8505 19.082L13.0097 17.6309C13.0618 17.1553 13.3365 16.7346 13.7509 16.4951C14.1646 16.2561 14.6666 16.2287 15.1044 16.4209L16.4384 17.0078C16.5805 17.0705 16.7386 17.0875 16.8907 17.0566C17.0429 17.0256 17.1817 16.9482 17.288 16.835C18.3243 15.7302 19.1196 14.3915 19.5712 12.8984C19.6162 12.7498 19.614 12.5909 19.5648 12.4437C19.5157 12.2964 19.422 12.168 19.2968 12.0762L18.1142 11.21C17.728 10.9267 17.5009 10.4789 17.5009 10C17.5009 9.52114 17.728 9.07333 18.1142 8.79004L19.2968 7.92383C19.422 7.83203 19.5157 7.70363 19.5648 7.55635C19.614 7.40907 19.6162 7.25017 19.5712 7.10156C19.1196 5.60851 18.3243 4.26979 17.288 3.16504C17.1817 3.05182 17.0429 2.97438 16.8907 2.94342C16.7386 2.91246 16.5805 2.9295 16.4384 2.99219L15.1044 3.5791C14.6666 3.77131 14.1646 3.74386 13.7509 3.50488C13.3365 3.26543 13.0618 2.84468 13.0097 2.36914L12.8505 0.917969C12.8336 0.763777 12.7693 0.618621 12.6665 0.502492C12.5636 0.386363 12.4273 0.304974 12.2763 0.269531C11.5502 0.100078 10.7894 0 10.0009 0ZM10.0009 1.5C10.4881 1.5 10.9559 1.58744 11.4248 1.66992L11.5185 2.53223C11.6224 3.48169 12.1744 4.32617 13.0009 4.80371C13.828 5.28157 14.835 5.3365 15.7089 4.95215L16.5019 4.60352C17.1108 5.3347 17.5929 6.16059 17.9296 7.06543L17.2265 7.58105C16.4567 8.14576 16.0009 9.04486 16.0009 10C16.0009 10.9551 16.4567 11.8542 17.2265 12.4189L17.9296 12.9346C17.5929 13.8394 17.1108 14.6653 16.5019 15.3965L15.7089 15.0479C14.835 14.6635 13.828 14.7184 13.0009 15.1963C12.1744 15.6738 11.6224 16.5183 11.5185 17.4678L11.4248 18.3301C10.9559 18.4123 10.4878 18.5 10.0009 18.5C9.51378 18.5 9.04597 18.4126 8.5771 18.3301L8.48335 17.4678C8.37941 16.5183 7.82747 15.6738 7.00093 15.1963C6.17384 14.7184 5.16688 14.6635 4.29292 15.0479L3.49995 15.3965C2.89092 14.6654 2.4089 13.8395 2.07222 12.9346L2.77534 12.4189C3.54516 11.8542 4.00093 10.9551 4.00093 10C4.00093 9.04486 3.54479 8.14518 2.77534 7.58008L2.07222 7.06445C2.40909 6.15927 2.89165 5.33392 3.50093 4.60254L4.29292 4.95117C5.16688 5.33553 6.17384 5.28157 7.00093 4.80371C7.82747 4.32617 8.37941 3.48169 8.48335 2.53223L8.5771 1.66992C9.04593 1.58767 9.51402 1.5 10.0009 1.5ZM10.0009 6C7.80067 6 6.00093 7.79975 6.00093 10C6.00093 12.2003 7.80067 14 10.0009 14C12.2012 14 14.0009 12.2003 14.0009 10C14.0009 7.79975 12.2012 6 10.0009 6ZM10.0009 7.5C11.3905 7.5 12.5009 8.6104 12.5009 10C12.5009 11.3896 11.3905 12.5 10.0009 12.5C8.61133 12.5 7.50093 11.3896 7.50093 10C7.50093 8.6104 8.61133 7.5 10.0009 7.5Z" fill="#7F7E79"/>
</svg>
