<svg width="16" height="16" viewBox="0 0 16 16" fill="none" xmlns="http://www.w3.org/2000/svg">
<path d="M7.45498 10.7502C7.27279 10.7502 7.09782 10.6777 6.96891 10.5488L4.7287 8.30857C4.46023 8.0401 4.46023 7.60491 4.7287 7.33645C4.99716 7.06798 5.43235 7.06798 5.70082 7.33645L7.45498 9.0906L10.5903 5.95526C10.8588 5.68679 11.294 5.68679 11.5624 5.95526C11.8309 6.22373 11.8309 6.65891 11.5624 6.92738L7.94104 10.5488C7.81213 10.6777 7.63716 10.7502 7.45498 10.7502Z" fill="#09B220"/>
<path d="M8 15.5625C3.82997 15.5625 0.4375 12.17 0.4375 8C0.4375 3.82997 3.82997 0.4375 8 0.4375C12.17 0.4375 15.5625 3.82997 15.5625 8C15.5625 12.17 12.17 15.5625 8 15.5625ZM8 1.8125C4.58828 1.8125 1.8125 4.58828 1.8125 8C1.8125 11.4117 4.58828 14.1875 8 14.1875C11.4117 14.1875 14.1875 11.4117 14.1875 8C14.1875 4.58828 11.4117 1.8125 8 1.8125Z" fill="#09B220"/>
</svg>
