<svg width="24" height="14" viewBox="0 0 24 14" fill="none" xmlns="http://www.w3.org/2000/svg">
<path d="M14.7486 12.7747V9.97359H8.15302L11.0509 6.99998H23.5312L14.7486 12.7747ZM4.30997 4.02637H8.15302L11.0301 6.9786V6.99998H7.20783L4.30997 4.02637ZM0.46875 9.97359H4.3118L7.18884 7.02135V6.99998H3.36661L0.46875 9.97359Z" fill="#FDC20F"/>
<path d="M23.7889 6.60823L15.0062 0.833469C14.9355 0.786978 14.8536 0.760482 14.7691 0.756794C14.6846 0.753105 14.6006 0.77236 14.5262 0.812517C14.4517 0.852674 14.3895 0.912235 14.3462 0.984883C14.3028 1.05753 14.2799 1.14056 14.2799 1.22516V3.55761H0.468881C0.376687 3.55761 0.28654 3.5848 0.209719 3.63577C0.132897 3.68674 0.0728116 3.75923 0.0369802 3.84418C0.00114871 3.92912 -0.00883782 4.02275 0.00827001 4.11334C0.0253778 4.20394 0.0688203 4.28747 0.133162 4.3535L2.71223 6.99992L0.133162 9.64634C0.0687754 9.71236 0.0252933 9.7959 0.00816039 9.8865C-0.00897253 9.97711 0.00100516 10.0708 0.0368442 10.1557C0.0726832 10.2407 0.132791 10.3132 0.209641 10.3642C0.286491 10.4151 0.376668 10.4423 0.468881 10.4422H14.2799V12.7747C14.2799 12.8593 14.3028 12.9423 14.3462 13.0149C14.3896 13.0876 14.4518 13.1471 14.5262 13.1872C14.6007 13.2274 14.6846 13.2466 14.7691 13.243C14.8536 13.2393 14.9355 13.2128 15.0062 13.1663L23.7889 7.39156C23.8538 7.34888 23.9071 7.29075 23.9439 7.22238C23.9808 7.15402 24.0001 7.07757 24.0001 6.9999C24.0001 6.92223 23.9808 6.84578 23.9439 6.77741C23.9071 6.70905 23.8538 6.65092 23.7889 6.60823ZM7.95538 9.50473H5.42324L7.52469 7.34839C7.53299 7.33986 7.54096 7.331 7.54855 7.32191C7.63084 7.23487 7.67668 7.11965 7.67668 6.99987C7.67668 6.8801 7.63084 6.76488 7.54855 6.67784C7.54093 6.66873 7.53297 6.65989 7.52469 6.65136L5.42324 4.49502H7.95538L10.3965 6.99992L7.95538 9.50473ZM3.70246 7.32706C3.78776 7.23952 3.8355 7.12213 3.8355 6.9999C3.8355 6.87767 3.78776 6.76028 3.70246 6.67273L1.58024 4.49506H4.11238L6.55349 6.99992L4.11238 9.50478H1.58024L3.70246 7.32706ZM15.2174 11.9055V9.97348C15.2174 9.71464 15.0075 9.50473 14.7487 9.50473H9.26451L11.366 7.34839L11.3662 7.34811L11.3867 7.32706C11.472 7.23952 11.5198 7.12213 11.5198 6.9999C11.5198 6.87767 11.472 6.76028 11.3867 6.67273L11.3662 6.65169L11.366 6.65141L9.26451 4.49506H14.7487C15.0075 4.49506 15.2174 4.28516 15.2174 4.02631V2.09431L22.6782 6.99992L15.2174 11.9055Z" fill="#171201"/>
</svg>
