<svg width="18" height="18" viewBox="0 0 18 18" fill="none" xmlns="http://www.w3.org/2000/svg">
<path d="M7.125 0.375C3.40312 0.375 0.375 3.40312 0.375 7.125C0.375 10.8469 3.40312 13.875 7.125 13.875C8.67345 13.875 10.0974 13.3453 11.2375 12.4651L16.1433 17.3708C16.4823 17.7098 17.0318 17.7098 17.3708 17.3708C17.7098 17.0318 17.7098 16.4823 17.3708 16.1433L12.4651 11.2375C13.3453 10.0974 13.875 8.67345 13.875 7.125C13.875 3.40312 10.8469 0.375 7.125 0.375ZM7.125 1.875C10.0196 1.875 12.375 4.23037 12.375 7.125C12.375 10.0196 10.0196 12.375 7.125 12.375C4.23037 12.375 1.875 10.0196 1.875 7.125C1.875 4.23037 4.23037 1.875 7.125 1.875Z" fill="black"/>
</svg>
