<svg width="80" height="80" viewBox="0 0 80 80" fill="none" xmlns="http://www.w3.org/2000/svg">
<g clip-path="url(#clip0_1_641)">
<path fill-rule="evenodd" clip-rule="evenodd" d="M15 40.0004L39.9995 15L65 39.9996L40.0004 65L15 40.0004Z" fill="#0ACC25"/>
<path fill-rule="evenodd" clip-rule="evenodd" d="M48.7175 6.71906C43.9254 1.92692 36.0746 1.92692 31.2824 6.71906L6.71913 31.2823C1.92698 36.0745 1.92698 43.9255 6.71913 48.7176L31.2824 73.2807L30.1775 74.3856L31.2824 73.2808C36.0746 78.0731 43.9254 78.0731 48.7175 73.2808L49.8224 74.3856L48.7175 73.2808L73.2807 48.7175C78.0728 43.9253 78.0728 36.0743 73.2807 31.2822L48.7175 6.71906ZM29.0727 4.50934C35.0852 -1.5032 44.9147 -1.5032 50.9273 4.50934L75.4904 29.0725C81.5029 35.085 81.5029 44.9146 75.4904 50.9272L50.9273 75.4905C44.9147 81.5032 35.0852 81.5032 29.0727 75.4905L4.50941 50.9274L5.61427 49.8225L4.50941 50.9273C-1.50314 44.9148 -1.50314 35.0852 4.50941 29.0726L29.0727 4.50934Z" fill="#171201"/>
<path fill-rule="evenodd" clip-rule="evenodd" d="M61.9064 27.2923C62.5165 27.9025 62.5165 28.8918 61.9064 29.502L41.1056 50.3028C40.4954 50.913 39.506 50.913 38.8959 50.3028L29.6979 41.1048C29.0877 40.4946 29.0877 39.5053 29.6979 38.8951C30.3081 38.2849 31.2974 38.2849 31.9076 38.8951L40.0007 46.9882L59.6966 27.2923C60.3068 26.6821 61.2962 26.6821 61.9064 27.2923Z" fill="#171201"/>
</g>
<defs>
<clipPath id="clip0_1_641">
<rect width="80" height="80" fill="white"/>
</clipPath>
</defs>
</svg>
