<svg width="18" height="18" viewBox="0 0 18 18" fill="none" xmlns="http://www.w3.org/2000/svg">
<path d="M8.99935 0.666504C4.40438 0.666504 0.666016 4.40487 0.666016 8.99984C0.666016 13.5948 4.40438 17.3332 8.99935 17.3332C13.5943 17.3332 17.3327 13.5948 17.3327 8.99984C17.3327 4.40487 13.5943 0.666504 8.99935 0.666504ZM8.99935 1.9165C12.9188 1.9165 16.0827 5.08042 16.0827 8.99984C16.0827 12.9193 12.9188 16.0832 8.99935 16.0832C5.07993 16.0832 1.91602 12.9193 1.91602 8.99984C1.91602 5.08042 5.07993 1.9165 8.99935 1.9165ZM8.36458 3.99088C8.19896 3.99347 8.04114 4.06169 7.92579 4.18056C7.81043 4.29942 7.74697 4.45922 7.74935 4.62484V9.20817C7.74938 9.37392 7.81524 9.53287 7.93245 9.65006L10.0158 11.7334C10.0734 11.7934 10.1424 11.8413 10.2187 11.8743C10.295 11.9072 10.3772 11.9247 10.4603 11.9255C10.5435 11.9264 10.6259 11.9106 10.7029 11.8792C10.7799 11.8477 10.8499 11.8013 10.9087 11.7425C10.9675 11.6837 11.0139 11.6137 11.0454 11.5368C11.0768 11.4598 11.0925 11.3773 11.0917 11.2941C11.0909 11.211 11.0734 11.1288 11.0404 11.0525C11.0074 10.9762 10.9596 10.9072 10.8996 10.8496L8.99935 8.94938V4.62484C9.00055 4.54118 8.98494 4.45814 8.95346 4.38063C8.92197 4.30312 8.87525 4.23272 8.81605 4.1736C8.75686 4.11448 8.6864 4.06785 8.60885 4.03646C8.53129 4.00508 8.44823 3.98958 8.36458 3.99088Z" fill="#7F7E79"/>
</svg>
