<svg width="32" height="24" viewBox="0 0 32 24" fill="none" xmlns="http://www.w3.org/2000/svg">
<path d="M4.625 5.35736H22.4508V18.6425H4.625V5.35736Z" fill="#FDC20F"/>
<path d="M31.5474 10.1142C31.6778 10.0768 31.7925 9.99796 31.8742 9.88958C31.9558 9.7812 32 9.64919 32 9.51349V3.77174C32 2.0958 30.6366 0.732361 28.9606 0.732361H24.0474C23.962 0.732368 23.8775 0.749883 23.7991 0.783823C23.7207 0.817763 23.6501 0.867409 23.5917 0.929696C23.5332 0.991983 23.4882 1.06559 23.4593 1.14597C23.4304 1.22635 23.4183 1.3118 23.4237 1.39705C23.4249 1.41655 23.4255 1.43624 23.4255 1.45605C23.4255 1.70874 23.3251 1.9443 23.1426 2.1193C22.9603 2.29417 22.7196 2.3848 22.4666 2.37411C22.0284 2.35586 21.6544 2.0163 21.5964 1.58455C21.588 1.52225 21.5858 1.45928 21.5897 1.39655C21.595 1.31135 21.5828 1.22596 21.5539 1.14564C21.525 1.06533 21.4799 0.991793 21.4214 0.929565C21.363 0.867336 21.2924 0.817736 21.2141 0.78382C21.1358 0.749904 21.0513 0.732391 20.9659 0.732361H3.03938C1.36344 0.732361 0 2.09586 0 3.7718V9.51355C-1.85276e-06 9.64924 0.0441546 9.78124 0.125799 9.88962C0.207443 9.998 0.32214 10.0769 0.452563 10.1143C1.14969 10.3143 1.6365 10.9612 1.6365 11.6875C1.6365 12.4137 1.14969 13.0607 0.452625 13.2607C0.322191 13.2981 0.20748 13.377 0.125824 13.4853C0.0441675 13.5937 2.04143e-06 13.7257 0 13.8614L0 20.2282C0 21.9041 1.36344 23.2675 3.03938 23.2675H20.9659C21.0512 23.2675 21.1357 23.25 21.2141 23.2161C21.2924 23.1822 21.363 23.1326 21.4214 23.0704C21.4799 23.0082 21.5249 22.9346 21.5539 22.8543C21.5828 22.774 21.595 22.6886 21.5896 22.6034C21.5858 22.5407 21.588 22.4777 21.5963 22.4155C21.6543 21.9836 22.0284 21.6441 22.4666 21.6258C22.72 21.6153 22.9602 21.7057 23.1425 21.8806C23.2323 21.9661 23.3037 22.069 23.3524 22.1831C23.401 22.2971 23.4259 22.4199 23.4254 22.5439C23.4254 22.5637 23.4248 22.5834 23.4236 22.6029C23.4182 22.6881 23.4303 22.7736 23.4592 22.854C23.488 22.9344 23.5331 23.008 23.5916 23.0703C23.65 23.1326 23.7206 23.1822 23.799 23.2161C23.8774 23.2501 23.9619 23.2676 24.0474 23.2675H28.9606C30.6364 23.2675 31.9999 21.9041 31.9999 20.2282V13.8614C31.9999 13.7257 31.9558 13.5937 31.8741 13.4853C31.7925 13.377 31.6777 13.2981 31.5473 13.2607C30.8503 13.0607 30.3635 12.4137 30.3635 11.6875C30.3635 10.9612 30.8503 10.3143 31.5474 10.1142ZM30.75 9.08542C29.7669 9.5598 29.1135 10.5705 29.1135 11.6875C29.1135 12.8045 29.7669 13.8151 30.75 14.2895V20.2282C30.75 21.2149 29.9473 22.0175 28.9606 22.0175H24.6119C24.5147 21.6247 24.3085 21.2668 24.0079 20.9785C23.5774 20.5657 23.0135 20.3522 22.4145 20.3769C21.4419 20.4175 20.6292 21.0932 20.4014 22.0175H3.03938C2.05275 22.0175 1.25 21.2148 1.25 20.2282V14.2895C2.23306 13.8151 2.8865 12.8044 2.8865 11.6875C2.8865 10.5705 2.23306 9.5598 1.25 9.08542V3.77174C1.25 2.78505 2.05275 1.98236 3.03938 1.98236H20.4014C20.6292 2.90655 21.4419 3.58242 22.4145 3.62299C23.0115 3.64774 23.5774 3.43424 24.0079 3.02142C24.3085 2.73311 24.5147 2.37517 24.6119 1.98236H28.9606C29.9473 1.98236 30.75 2.78511 30.75 3.77174V9.08542Z" fill="#171201"/>
<path d="M22.4492 14.9181C22.7943 14.9181 23.0742 14.6383 23.0742 14.2931V13.2718C23.0742 12.9267 22.7943 12.6468 22.4492 12.6468C22.1041 12.6468 21.8242 12.9267 21.8242 13.2718V14.2931C21.8242 14.6383 22.104 14.9181 22.4492 14.9181ZM22.4492 11.3531C22.7943 11.3531 23.0742 11.0733 23.0742 10.7281V9.70685C23.0742 9.36166 22.7943 9.08185 22.4492 9.08185C22.1041 9.08185 21.8242 9.36166 21.8242 9.70685V10.7281C21.8242 11.0733 22.104 11.3531 22.4492 11.3531Z" fill="#171201"/>
<path d="M27.3741 4.73236H22.4499C22.1048 4.73236 21.8249 5.01217 21.8249 5.35736V7.16311C21.8249 7.5083 22.1048 7.78811 22.4499 7.78811C22.795 7.78811 23.0749 7.5083 23.0749 7.16311V5.98236H26.7491V18.0175H23.0749V16.8369C23.0749 16.4917 22.795 16.2119 22.4499 16.2119C22.1048 16.2119 21.8249 16.4917 21.8249 16.8369V18.6426C21.8249 18.9878 22.1048 19.2676 22.4499 19.2676H27.3741C27.7192 19.2676 27.9991 18.9878 27.9991 18.6426V5.35736C27.9991 5.01217 27.7192 4.73236 27.3741 4.73236ZM15.4628 7.72324C15.1444 7.58967 14.7781 7.73936 14.6446 8.05767L11.3823 15.8311C11.2486 16.1494 11.3985 16.5157 11.7167 16.6492C11.7932 16.6815 11.8753 16.6981 11.9583 16.6981C12.2025 16.6981 12.4345 16.5541 12.5349 16.3148L15.7972 8.54136C15.9308 8.22311 15.781 7.8568 15.4628 7.72324ZM13.4005 9.6123C13.4005 8.34405 12.4735 7.31224 11.334 7.31224C10.1946 7.31224 9.26758 8.34405 9.26758 9.6123C9.26758 10.8805 10.1946 11.9124 11.334 11.9124C12.4735 11.9124 13.4005 10.8806 13.4005 9.6123ZM10.5175 9.6123C10.5175 9.04311 10.8914 8.56224 11.334 8.56224C11.7766 8.56224 12.1505 9.04311 12.1505 9.6123C12.1505 10.1815 11.7766 10.6624 11.334 10.6624C10.8914 10.6624 10.5175 10.1815 10.5175 9.6123ZM15.74 12.6271C14.6005 12.6271 13.6735 13.6589 13.6735 14.9272C13.6735 16.1954 14.6005 17.2272 15.74 17.2272C16.8794 17.2272 17.8064 16.1954 17.8064 14.9272C17.8065 13.6589 16.8795 12.6271 15.74 12.6271ZM15.74 15.9772C15.2973 15.9772 14.9235 15.4964 14.9235 14.9272C14.9235 14.358 15.2973 13.8771 15.74 13.8771C16.1825 13.8771 16.5564 14.358 16.5564 14.9272C16.5565 15.4964 16.1826 15.9772 15.74 15.9772Z" fill="#171201"/>
</svg>
