<svg width="18" height="14" viewBox="0 0 18 14" fill="none" xmlns="http://www.w3.org/2000/svg">
<path d="M12.6091 0.8125C10.9979 0.8125 9.68721 2.20056 9.68721 3.90625C9.68721 5.61194 10.9979 7 12.6091 7C14.2202 7 15.531 5.61194 15.531 3.90625C15.531 2.20056 14.2202 0.8125 12.6091 0.8125ZM5.04658 1.15625C3.45571 1.15625 2.12877 2.36077 1.84071 3.94855C1.58737 5.02895 1.09334 5.81907 0.568434 6.56226C0.295841 6.94829 0.540247 7.49206 0.998122 7.60962C2.60584 8.02212 6.3879 8.30571 9.09974 7.60962C9.55762 7.49206 9.7986 6.95035 9.52876 6.56226C9.05782 5.88472 8.43299 4.88609 8.24977 3.92841C7.95449 2.35025 6.63093 1.15625 5.04658 1.15625ZM12.6091 2.1875C13.4619 2.1875 14.156 2.95853 14.156 3.90625C14.156 4.85397 13.4619 5.625 12.6091 5.625C11.7562 5.625 11.0622 4.85397 11.0622 3.90625C11.0622 2.95853 11.7562 2.1875 12.6091 2.1875ZM3.41176 3.5625H6.68141C6.84297 3.86637 6.93721 4.21803 6.93721 4.59375C6.93721 5.73122 6.08883 6.65625 5.04658 6.65625C4.00433 6.65625 3.15596 5.73122 3.15596 4.59375C3.15596 4.21803 3.24985 3.86637 3.41176 3.5625ZM12.6091 7.73517C10.8943 7.73517 9.32738 8.37627 8.28871 9.43915C7.43557 9.00837 6.44077 8.76575 5.38966 8.76575C3.09651 8.76575 1.06376 9.90925 0.211257 11.6796C-0.298868 12.7393 0.54427 13.875 1.63258 13.875H9.14808C9.80059 13.875 10.4075 13.4423 10.6325 12.8438H16.3668C17.4551 12.8438 18.298 11.7081 17.7875 10.6483C16.935 8.878 14.9026 7.73448 12.6091 7.73517ZM12.6091 9.1095C14.3505 9.1095 15.9341 9.9678 16.5495 11.2452C16.6041 11.3614 16.4748 11.4688 16.3668 11.4688H10.4559C10.2013 11.0065 9.86643 10.5898 9.46431 10.2314C10.2503 9.53756 11.3872 9.1095 12.6091 9.1095ZM5.39033 10.1407C7.13143 10.1407 8.71506 10.9991 9.33003 12.2764C9.38469 12.3926 9.25466 12.5 9.14741 12.5H1.63258C1.52464 12.5 1.39565 12.3923 1.44996 12.2758C2.06528 10.9987 3.64924 10.1407 5.39033 10.1407Z" fill="#7F7E79"/>
</svg>
